<mxfile host="Electron" modified="2024-05-15T20:46:10.082Z" agent="Mozilla/5.0 (Windows NT 10.0; Win64; x64) AppleWebKit/537.36 (KHTML, like Gecko) draw.io/22.1.18 Chrome/120.0.6099.199 Electron/28.1.2 Safari/537.36" etag="xwUWzjFp2Za5Dr0d8juS" version="22.1.18" type="device">
  <diagram id="C5RBs43oDa-KdzZeNtuy" name="Page-1">
    <mxGraphModel dx="1687" dy="984" grid="1" gridSize="10" guides="1" tooltips="1" connect="1" arrows="1" fold="1" page="1" pageScale="1" pageWidth="1169" pageHeight="827" math="0" shadow="0">
      <root>
        <mxCell id="WIyWlLk6GJQsqaUBKTNV-0" />
        <mxCell id="WIyWlLk6GJQsqaUBKTNV-1" parent="WIyWlLk6GJQsqaUBKTNV-0" />
        <mxCell id="vfCL8tkKtulY90qjnvT6-31" style="edgeStyle=orthogonalEdgeStyle;rounded=0;orthogonalLoop=1;jettySize=auto;html=1;" parent="WIyWlLk6GJQsqaUBKTNV-1" source="vfCL8tkKtulY90qjnvT6-0" target="vfCL8tkKtulY90qjnvT6-16" edge="1">
          <mxGeometry relative="1" as="geometry" />
        </mxCell>
        <mxCell id="vfCL8tkKtulY90qjnvT6-32" value="prevê o monitoramento" style="edgeLabel;html=1;align=center;verticalAlign=middle;resizable=0;points=[];" parent="vfCL8tkKtulY90qjnvT6-31" vertex="1" connectable="0">
          <mxGeometry x="0.1458" relative="1" as="geometry">
            <mxPoint y="14" as="offset" />
          </mxGeometry>
        </mxCell>
        <mxCell id="vfCL8tkKtulY90qjnvT6-33" value="1..*" style="edgeLabel;html=1;align=center;verticalAlign=middle;resizable=0;points=[];" parent="vfCL8tkKtulY90qjnvT6-31" vertex="1" connectable="0">
          <mxGeometry x="0.9028" y="1" relative="1" as="geometry">
            <mxPoint x="-6" y="-12" as="offset" />
          </mxGeometry>
        </mxCell>
        <mxCell id="vfCL8tkKtulY90qjnvT6-34" style="edgeStyle=orthogonalEdgeStyle;rounded=0;orthogonalLoop=1;jettySize=auto;html=1;" parent="WIyWlLk6GJQsqaUBKTNV-1" source="vfCL8tkKtulY90qjnvT6-0" target="vfCL8tkKtulY90qjnvT6-19" edge="1">
          <mxGeometry relative="1" as="geometry" />
        </mxCell>
        <mxCell id="vfCL8tkKtulY90qjnvT6-44" value="monitora a qualidade" style="edgeLabel;html=1;align=center;verticalAlign=middle;resizable=0;points=[];" parent="vfCL8tkKtulY90qjnvT6-34" vertex="1" connectable="0">
          <mxGeometry x="-0.0287" y="-3" relative="1" as="geometry">
            <mxPoint x="10" y="-14" as="offset" />
          </mxGeometry>
        </mxCell>
        <mxCell id="vfCL8tkKtulY90qjnvT6-45" value="1..*" style="edgeLabel;html=1;align=center;verticalAlign=middle;resizable=0;points=[];" parent="vfCL8tkKtulY90qjnvT6-34" vertex="1" connectable="0">
          <mxGeometry x="0.8678" relative="1" as="geometry">
            <mxPoint x="-20" as="offset" />
          </mxGeometry>
        </mxCell>
        <mxCell id="vfCL8tkKtulY90qjnvT6-0" value="Plano de Amostragem" style="swimlane;fontStyle=1;align=center;verticalAlign=top;childLayout=stackLayout;horizontal=1;startSize=26;horizontalStack=0;resizeParent=1;resizeParentMax=0;resizeLast=0;collapsible=1;marginBottom=0;whiteSpace=wrap;html=1;fillColor=#fff2cc;strokeColor=#d6b656;" parent="WIyWlLk6GJQsqaUBKTNV-1" vertex="1">
          <mxGeometry x="70" y="240" width="260" height="160" as="geometry" />
        </mxCell>
        <mxCell id="vfCL8tkKtulY90qjnvT6-1" value="Vigência&lt;br&gt;População Abastecida&lt;br&gt;Localidade&lt;br&gt;" style="text;strokeColor=none;fillColor=none;align=left;verticalAlign=top;spacingLeft=4;spacingRight=4;overflow=hidden;rotatable=0;points=[[0,0.5],[1,0.5]];portConstraint=eastwest;whiteSpace=wrap;html=1;" parent="vfCL8tkKtulY90qjnvT6-0" vertex="1">
          <mxGeometry y="26" width="260" height="74" as="geometry" />
        </mxCell>
        <mxCell id="vfCL8tkKtulY90qjnvT6-2" value="" style="line;strokeWidth=1;fillColor=none;align=left;verticalAlign=middle;spacingTop=-1;spacingLeft=3;spacingRight=3;rotatable=0;labelPosition=right;points=[];portConstraint=eastwest;strokeColor=inherit;" parent="vfCL8tkKtulY90qjnvT6-0" vertex="1">
          <mxGeometry y="100" width="260" height="8" as="geometry" />
        </mxCell>
        <mxCell id="vfCL8tkKtulY90qjnvT6-10" value="Plano de monitoramento de determinada localidade atendida por uma ou mais unidades de tratamento de água" style="text;strokeColor=none;fillColor=none;align=left;verticalAlign=top;spacingLeft=4;spacingRight=4;overflow=hidden;rotatable=0;points=[[0,0.5],[1,0.5]];portConstraint=eastwest;whiteSpace=wrap;html=1;" parent="vfCL8tkKtulY90qjnvT6-0" vertex="1">
          <mxGeometry y="108" width="260" height="52" as="geometry" />
        </mxCell>
        <mxCell id="vfCL8tkKtulY90qjnvT6-15" value="Ponto Amostral" style="swimlane;fontStyle=1;align=center;verticalAlign=top;childLayout=stackLayout;horizontal=1;startSize=26;horizontalStack=0;resizeParent=1;resizeParentMax=0;resizeLast=0;collapsible=1;marginBottom=0;whiteSpace=wrap;html=1;fillColor=#fff2cc;strokeColor=#d6b656;swimlaneLine=1;" parent="WIyWlLk6GJQsqaUBKTNV-1" vertex="1">
          <mxGeometry x="540" y="120" width="330" height="192" as="geometry" />
        </mxCell>
        <mxCell id="vfCL8tkKtulY90qjnvT6-16" value="Código&lt;br&gt;Endereço&lt;br&gt;Posição geográfica (latitude x longitude)&lt;br&gt;Tipo [Fixo ou Ocasional]&lt;br&gt;Tipo da Frequência [Diária, Semanal, Mensal, Semestral]&lt;br&gt;Intervalo da Frequência" style="text;strokeColor=none;fillColor=none;align=left;verticalAlign=top;spacingLeft=4;spacingRight=4;overflow=hidden;rotatable=0;points=[[0,0.5],[1,0.5]];portConstraint=eastwest;whiteSpace=wrap;html=1;" parent="vfCL8tkKtulY90qjnvT6-15" vertex="1">
          <mxGeometry y="26" width="330" height="104" as="geometry" />
        </mxCell>
        <mxCell id="vfCL8tkKtulY90qjnvT6-17" value="" style="line;strokeWidth=1;fillColor=none;align=left;verticalAlign=middle;spacingTop=-1;spacingLeft=3;spacingRight=3;rotatable=0;labelPosition=right;points=[];portConstraint=eastwest;strokeColor=inherit;" parent="vfCL8tkKtulY90qjnvT6-15" vertex="1">
          <mxGeometry y="130" width="330" height="8" as="geometry" />
        </mxCell>
        <mxCell id="vfCL8tkKtulY90qjnvT6-18" value="Ponto geolocalizado para coleta de amostras, que é monitorado com uma frequência pré-determinada." style="text;strokeColor=none;fillColor=none;align=left;verticalAlign=top;spacingLeft=4;spacingRight=4;overflow=hidden;rotatable=0;points=[[0,0.5],[1,0.5]];portConstraint=eastwest;whiteSpace=wrap;html=1;" parent="vfCL8tkKtulY90qjnvT6-15" vertex="1">
          <mxGeometry y="138" width="330" height="54" as="geometry" />
        </mxCell>
        <mxCell id="vfCL8tkKtulY90qjnvT6-19" value="Unidade de Tratamento" style="swimlane;fontStyle=1;align=center;verticalAlign=top;childLayout=stackLayout;horizontal=1;startSize=26;horizontalStack=0;resizeParent=1;resizeParentMax=0;resizeLast=0;collapsible=1;marginBottom=0;whiteSpace=wrap;html=1;fillColor=#fff2cc;strokeColor=#d6b656;glass=0;" parent="WIyWlLk6GJQsqaUBKTNV-1" vertex="1">
          <mxGeometry x="190" y="590" width="240" height="162" as="geometry" />
        </mxCell>
        <mxCell id="vfCL8tkKtulY90qjnvT6-20" value="Nome&lt;br&gt;Endereço de Instalação" style="text;strokeColor=none;fillColor=none;align=left;verticalAlign=top;spacingLeft=4;spacingRight=4;overflow=hidden;rotatable=0;points=[[0,0.5],[1,0.5]];portConstraint=eastwest;whiteSpace=wrap;html=1;" parent="vfCL8tkKtulY90qjnvT6-19" vertex="1">
          <mxGeometry y="26" width="240" height="74" as="geometry" />
        </mxCell>
        <mxCell id="vfCL8tkKtulY90qjnvT6-21" value="" style="line;strokeWidth=1;fillColor=none;align=left;verticalAlign=middle;spacingTop=-1;spacingLeft=3;spacingRight=3;rotatable=0;labelPosition=right;points=[];portConstraint=eastwest;strokeColor=inherit;" parent="vfCL8tkKtulY90qjnvT6-19" vertex="1">
          <mxGeometry y="100" width="240" height="8" as="geometry" />
        </mxCell>
        <mxCell id="vfCL8tkKtulY90qjnvT6-22" value="Unidade que potabiliza a água para distribuição" style="text;strokeColor=none;fillColor=none;align=left;verticalAlign=top;spacingLeft=4;spacingRight=4;overflow=hidden;rotatable=0;points=[[0,0.5],[1,0.5]];portConstraint=eastwest;whiteSpace=wrap;html=1;shadow=0;" parent="vfCL8tkKtulY90qjnvT6-19" vertex="1">
          <mxGeometry y="108" width="240" height="54" as="geometry" />
        </mxCell>
        <mxCell id="vfCL8tkKtulY90qjnvT6-35" value="Manancial" style="swimlane;fontStyle=1;align=center;verticalAlign=top;childLayout=stackLayout;horizontal=1;startSize=25;horizontalStack=0;resizeParent=1;resizeParentMax=0;resizeLast=0;collapsible=1;marginBottom=0;whiteSpace=wrap;html=1;fillColor=#fff2cc;strokeColor=#d6b656;glass=0;" parent="WIyWlLk6GJQsqaUBKTNV-1" vertex="1">
          <mxGeometry x="610" y="680" width="240" height="161" as="geometry" />
        </mxCell>
        <mxCell id="vfCL8tkKtulY90qjnvT6-36" value="Nome&lt;br&gt;Tipo [Superficial, Subterrâneo, Ambos]" style="text;strokeColor=none;fillColor=none;align=left;verticalAlign=top;spacingLeft=4;spacingRight=4;overflow=hidden;rotatable=0;points=[[0,0.5],[1,0.5]];portConstraint=eastwest;whiteSpace=wrap;html=1;" parent="vfCL8tkKtulY90qjnvT6-35" vertex="1">
          <mxGeometry y="25" width="240" height="74" as="geometry" />
        </mxCell>
        <mxCell id="vfCL8tkKtulY90qjnvT6-37" value="" style="line;strokeWidth=1;fillColor=none;align=left;verticalAlign=middle;spacingTop=-1;spacingLeft=3;spacingRight=3;rotatable=0;labelPosition=right;points=[];portConstraint=eastwest;strokeColor=inherit;" parent="vfCL8tkKtulY90qjnvT6-35" vertex="1">
          <mxGeometry y="99" width="240" height="8" as="geometry" />
        </mxCell>
        <mxCell id="vfCL8tkKtulY90qjnvT6-38" value="Corpo natural que fornece água para captação e tratamento" style="text;strokeColor=none;fillColor=none;align=left;verticalAlign=top;spacingLeft=4;spacingRight=4;overflow=hidden;rotatable=0;points=[[0,0.5],[1,0.5]];portConstraint=eastwest;whiteSpace=wrap;html=1;shadow=0;" parent="vfCL8tkKtulY90qjnvT6-35" vertex="1">
          <mxGeometry y="107" width="240" height="54" as="geometry" />
        </mxCell>
        <mxCell id="vfCL8tkKtulY90qjnvT6-39" style="edgeStyle=orthogonalEdgeStyle;rounded=0;orthogonalLoop=1;jettySize=auto;html=1;entryX=0;entryY=0.5;entryDx=0;entryDy=0;exitX=1.008;exitY=0.824;exitDx=0;exitDy=0;exitPerimeter=0;" parent="WIyWlLk6GJQsqaUBKTNV-1" source="vfCL8tkKtulY90qjnvT6-22" target="vfCL8tkKtulY90qjnvT6-36" edge="1">
          <mxGeometry relative="1" as="geometry">
            <mxPoint x="440" y="742" as="sourcePoint" />
            <mxPoint x="630" y="671" as="targetPoint" />
            <Array as="points">
              <mxPoint x="560" y="742" />
              <mxPoint x="560" y="742" />
            </Array>
          </mxGeometry>
        </mxCell>
        <mxCell id="vfCL8tkKtulY90qjnvT6-40" value="capta água" style="edgeLabel;html=1;align=center;verticalAlign=middle;resizable=0;points=[];" parent="vfCL8tkKtulY90qjnvT6-39" vertex="1" connectable="0">
          <mxGeometry x="-0.1619" y="-1" relative="1" as="geometry">
            <mxPoint x="20" y="-14" as="offset" />
          </mxGeometry>
        </mxCell>
        <mxCell id="vfCL8tkKtulY90qjnvT6-42" value="1..*" style="edgeLabel;html=1;align=center;verticalAlign=middle;resizable=0;points=[];" parent="vfCL8tkKtulY90qjnvT6-39" vertex="1" connectable="0">
          <mxGeometry x="0.9333" y="-2" relative="1" as="geometry">
            <mxPoint x="-13" y="-12" as="offset" />
          </mxGeometry>
        </mxCell>
        <mxCell id="vfCL8tkKtulY90qjnvT6-61" style="edgeStyle=orthogonalEdgeStyle;rounded=0;orthogonalLoop=1;jettySize=auto;html=1;entryX=0.5;entryY=0;entryDx=0;entryDy=0;" parent="WIyWlLk6GJQsqaUBKTNV-1" source="vfCL8tkKtulY90qjnvT6-46" target="vfCL8tkKtulY90qjnvT6-57" edge="1">
          <mxGeometry relative="1" as="geometry" />
        </mxCell>
        <mxCell id="vfCL8tkKtulY90qjnvT6-62" value="produz" style="edgeLabel;html=1;align=center;verticalAlign=middle;resizable=0;points=[];" parent="vfCL8tkKtulY90qjnvT6-61" vertex="1" connectable="0">
          <mxGeometry x="-0.0556" y="-1" relative="1" as="geometry">
            <mxPoint as="offset" />
          </mxGeometry>
        </mxCell>
        <mxCell id="vfCL8tkKtulY90qjnvT6-63" value="1..*" style="edgeLabel;html=1;align=center;verticalAlign=middle;resizable=0;points=[];" parent="vfCL8tkKtulY90qjnvT6-61" vertex="1" connectable="0">
          <mxGeometry x="0.5938" relative="1" as="geometry">
            <mxPoint x="-15" y="-5" as="offset" />
          </mxGeometry>
        </mxCell>
        <mxCell id="vfCL8tkKtulY90qjnvT6-46" value="Coleta" style="swimlane;fontStyle=1;align=center;verticalAlign=top;childLayout=stackLayout;horizontal=1;startSize=26;horizontalStack=0;resizeParent=1;resizeParentMax=0;resizeLast=0;collapsible=1;marginBottom=0;whiteSpace=wrap;html=1;fillColor=#fff2cc;strokeColor=#d6b656;swimlaneLine=1;" parent="WIyWlLk6GJQsqaUBKTNV-1" vertex="1">
          <mxGeometry x="1000" y="290" width="330" height="162" as="geometry" />
        </mxCell>
        <mxCell id="vfCL8tkKtulY90qjnvT6-47" value="Data e Hora&lt;br&gt;Amostrador&lt;br&gt;Receptor&lt;br&gt;Condição do tempo [Seco, Chuvoso]" style="text;strokeColor=none;fillColor=none;align=left;verticalAlign=top;spacingLeft=4;spacingRight=4;overflow=hidden;rotatable=0;points=[[0,0.5],[1,0.5]];portConstraint=eastwest;whiteSpace=wrap;html=1;" parent="vfCL8tkKtulY90qjnvT6-46" vertex="1">
          <mxGeometry y="26" width="330" height="74" as="geometry" />
        </mxCell>
        <mxCell id="vfCL8tkKtulY90qjnvT6-48" value="" style="line;strokeWidth=1;fillColor=none;align=left;verticalAlign=middle;spacingTop=-1;spacingLeft=3;spacingRight=3;rotatable=0;labelPosition=right;points=[];portConstraint=eastwest;strokeColor=inherit;" parent="vfCL8tkKtulY90qjnvT6-46" vertex="1">
          <mxGeometry y="100" width="330" height="8" as="geometry" />
        </mxCell>
        <mxCell id="vfCL8tkKtulY90qjnvT6-49" value="Evento de retirada (coleta) de amostras de um ponto amostral em determinado momento." style="text;strokeColor=none;fillColor=none;align=left;verticalAlign=top;spacingLeft=4;spacingRight=4;overflow=hidden;rotatable=0;points=[[0,0.5],[1,0.5]];portConstraint=eastwest;whiteSpace=wrap;html=1;" parent="vfCL8tkKtulY90qjnvT6-46" vertex="1">
          <mxGeometry y="108" width="330" height="54" as="geometry" />
        </mxCell>
        <mxCell id="vfCL8tkKtulY90qjnvT6-54" style="edgeStyle=orthogonalEdgeStyle;rounded=0;orthogonalLoop=1;jettySize=auto;html=1;entryX=0.5;entryY=0;entryDx=0;entryDy=0;" parent="WIyWlLk6GJQsqaUBKTNV-1" source="vfCL8tkKtulY90qjnvT6-16" target="vfCL8tkKtulY90qjnvT6-46" edge="1">
          <mxGeometry relative="1" as="geometry">
            <Array as="points">
              <mxPoint x="1165" y="250" />
            </Array>
          </mxGeometry>
        </mxCell>
        <mxCell id="vfCL8tkKtulY90qjnvT6-55" value="determina o local" style="edgeLabel;html=1;align=center;verticalAlign=middle;resizable=0;points=[];" parent="vfCL8tkKtulY90qjnvT6-54" vertex="1" connectable="0">
          <mxGeometry x="-0.1839" y="2" relative="1" as="geometry">
            <mxPoint x="-2" y="-6" as="offset" />
          </mxGeometry>
        </mxCell>
        <mxCell id="vfCL8tkKtulY90qjnvT6-56" value="1..*" style="edgeLabel;html=1;align=center;verticalAlign=middle;resizable=0;points=[];" parent="vfCL8tkKtulY90qjnvT6-54" vertex="1" connectable="0">
          <mxGeometry x="0.864" y="-2" relative="1" as="geometry">
            <mxPoint x="-13" as="offset" />
          </mxGeometry>
        </mxCell>
        <mxCell id="vfCL8tkKtulY90qjnvT6-91" style="edgeStyle=orthogonalEdgeStyle;rounded=0;orthogonalLoop=1;jettySize=auto;html=1;entryX=0.5;entryY=0;entryDx=0;entryDy=0;" parent="WIyWlLk6GJQsqaUBKTNV-1" source="vfCL8tkKtulY90qjnvT6-57" target="vfCL8tkKtulY90qjnvT6-79" edge="1">
          <mxGeometry relative="1" as="geometry" />
        </mxCell>
        <mxCell id="vfCL8tkKtulY90qjnvT6-92" value="recebe" style="edgeLabel;html=1;align=center;verticalAlign=middle;resizable=0;points=[];" parent="vfCL8tkKtulY90qjnvT6-91" vertex="1" connectable="0">
          <mxGeometry x="-0.0685" relative="1" as="geometry">
            <mxPoint x="-25" as="offset" />
          </mxGeometry>
        </mxCell>
        <mxCell id="vfCL8tkKtulY90qjnvT6-93" value="1..*" style="edgeLabel;html=1;align=center;verticalAlign=middle;resizable=0;points=[];" parent="vfCL8tkKtulY90qjnvT6-91" vertex="1" connectable="0">
          <mxGeometry x="0.6458" relative="1" as="geometry">
            <mxPoint x="-15" as="offset" />
          </mxGeometry>
        </mxCell>
        <mxCell id="vfCL8tkKtulY90qjnvT6-57" value="Amostra" style="swimlane;fontStyle=1;align=center;verticalAlign=top;childLayout=stackLayout;horizontal=1;startSize=26;horizontalStack=0;resizeParent=1;resizeParentMax=0;resizeLast=0;collapsible=1;marginBottom=0;whiteSpace=wrap;html=1;fillColor=#fff2cc;strokeColor=#d6b656;swimlaneLine=1;" parent="WIyWlLk6GJQsqaUBKTNV-1" vertex="1">
          <mxGeometry x="1000" y="580" width="330" height="162" as="geometry" />
        </mxCell>
        <mxCell id="vfCL8tkKtulY90qjnvT6-58" value="Data e Hora&lt;br&gt;Condição do tempo [Seco, Chuvoso]&lt;br&gt;Tipo de Amostra [Água Bruta, Sistema de Distribuição, Água Tratada]" style="text;strokeColor=none;fillColor=none;align=left;verticalAlign=top;spacingLeft=4;spacingRight=4;overflow=hidden;rotatable=0;points=[[0,0.5],[1,0.5]];portConstraint=eastwest;whiteSpace=wrap;html=1;" parent="vfCL8tkKtulY90qjnvT6-57" vertex="1">
          <mxGeometry y="26" width="330" height="74" as="geometry" />
        </mxCell>
        <mxCell id="vfCL8tkKtulY90qjnvT6-59" value="" style="line;strokeWidth=1;fillColor=none;align=left;verticalAlign=middle;spacingTop=-1;spacingLeft=3;spacingRight=3;rotatable=0;labelPosition=right;points=[];portConstraint=eastwest;strokeColor=inherit;" parent="vfCL8tkKtulY90qjnvT6-57" vertex="1">
          <mxGeometry y="100" width="330" height="8" as="geometry" />
        </mxCell>
        <mxCell id="vfCL8tkKtulY90qjnvT6-60" value="Pequeno volume de água depositado em um Frasco." style="text;strokeColor=none;fillColor=none;align=left;verticalAlign=top;spacingLeft=4;spacingRight=4;overflow=hidden;rotatable=0;points=[[0,0.5],[1,0.5]];portConstraint=eastwest;whiteSpace=wrap;html=1;" parent="vfCL8tkKtulY90qjnvT6-57" vertex="1">
          <mxGeometry y="108" width="330" height="54" as="geometry" />
        </mxCell>
        <mxCell id="vfCL8tkKtulY90qjnvT6-64" value="Estação de Tratamento" style="swimlane;fontStyle=1;align=center;verticalAlign=top;childLayout=stackLayout;horizontal=1;startSize=26;horizontalStack=0;resizeParent=1;resizeParentMax=0;resizeLast=0;collapsible=1;marginBottom=0;whiteSpace=wrap;html=1;fillColor=#fff2cc;strokeColor=#d6b656;glass=0;" parent="WIyWlLk6GJQsqaUBKTNV-1" vertex="1">
          <mxGeometry x="70" y="920" width="240" height="162" as="geometry" />
        </mxCell>
        <mxCell id="vfCL8tkKtulY90qjnvT6-65" value="Tipo de tratamento&lt;br&gt;Número de Operadores" style="text;strokeColor=none;fillColor=none;align=left;verticalAlign=top;spacingLeft=4;spacingRight=4;overflow=hidden;rotatable=0;points=[[0,0.5],[1,0.5]];portConstraint=eastwest;whiteSpace=wrap;html=1;" parent="vfCL8tkKtulY90qjnvT6-64" vertex="1">
          <mxGeometry y="26" width="240" height="74" as="geometry" />
        </mxCell>
        <mxCell id="vfCL8tkKtulY90qjnvT6-66" value="" style="line;strokeWidth=1;fillColor=none;align=left;verticalAlign=middle;spacingTop=-1;spacingLeft=3;spacingRight=3;rotatable=0;labelPosition=right;points=[];portConstraint=eastwest;strokeColor=inherit;" parent="vfCL8tkKtulY90qjnvT6-64" vertex="1">
          <mxGeometry y="100" width="240" height="8" as="geometry" />
        </mxCell>
        <mxCell id="vfCL8tkKtulY90qjnvT6-67" value="Unidade de tratamento complexa e de alta capacidade" style="text;strokeColor=none;fillColor=none;align=left;verticalAlign=top;spacingLeft=4;spacingRight=4;overflow=hidden;rotatable=0;points=[[0,0.5],[1,0.5]];portConstraint=eastwest;whiteSpace=wrap;html=1;shadow=0;" parent="vfCL8tkKtulY90qjnvT6-64" vertex="1">
          <mxGeometry y="108" width="240" height="54" as="geometry" />
        </mxCell>
        <mxCell id="vfCL8tkKtulY90qjnvT6-68" style="edgeStyle=orthogonalEdgeStyle;rounded=0;orthogonalLoop=1;jettySize=auto;html=1;entryX=0.192;entryY=0.981;entryDx=0;entryDy=0;entryPerimeter=0;" parent="WIyWlLk6GJQsqaUBKTNV-1" source="vfCL8tkKtulY90qjnvT6-64" target="vfCL8tkKtulY90qjnvT6-22" edge="1">
          <mxGeometry relative="1" as="geometry" />
        </mxCell>
        <mxCell id="vfCL8tkKtulY90qjnvT6-69" value="é" style="edgeLabel;html=1;align=center;verticalAlign=middle;resizable=0;points=[];" parent="vfCL8tkKtulY90qjnvT6-68" vertex="1" connectable="0">
          <mxGeometry x="-0.2548" y="-2" relative="1" as="geometry">
            <mxPoint x="33" y="-18" as="offset" />
          </mxGeometry>
        </mxCell>
        <mxCell id="vfCL8tkKtulY90qjnvT6-76" style="edgeStyle=orthogonalEdgeStyle;rounded=0;orthogonalLoop=1;jettySize=auto;html=1;entryX=0.817;entryY=1.019;entryDx=0;entryDy=0;entryPerimeter=0;" parent="WIyWlLk6GJQsqaUBKTNV-1" source="vfCL8tkKtulY90qjnvT6-71" target="vfCL8tkKtulY90qjnvT6-22" edge="1">
          <mxGeometry relative="1" as="geometry" />
        </mxCell>
        <mxCell id="vfCL8tkKtulY90qjnvT6-77" value="é" style="edgeLabel;html=1;align=center;verticalAlign=middle;resizable=0;points=[];" parent="vfCL8tkKtulY90qjnvT6-76" vertex="1" connectable="0">
          <mxGeometry x="0.586" y="-2" relative="1" as="geometry">
            <mxPoint x="42" y="15" as="offset" />
          </mxGeometry>
        </mxCell>
        <mxCell id="vfCL8tkKtulY90qjnvT6-71" value="Sistema Alternativo" style="swimlane;fontStyle=1;align=center;verticalAlign=top;childLayout=stackLayout;horizontal=1;startSize=26;horizontalStack=0;resizeParent=1;resizeParentMax=0;resizeLast=0;collapsible=1;marginBottom=0;whiteSpace=wrap;html=1;fillColor=#fff2cc;strokeColor=#d6b656;glass=0;" parent="WIyWlLk6GJQsqaUBKTNV-1" vertex="1">
          <mxGeometry x="350" y="920" width="240" height="162" as="geometry" />
        </mxCell>
        <mxCell id="vfCL8tkKtulY90qjnvT6-72" value="Tipo de tratamento" style="text;strokeColor=none;fillColor=none;align=left;verticalAlign=top;spacingLeft=4;spacingRight=4;overflow=hidden;rotatable=0;points=[[0,0.5],[1,0.5]];portConstraint=eastwest;whiteSpace=wrap;html=1;" parent="vfCL8tkKtulY90qjnvT6-71" vertex="1">
          <mxGeometry y="26" width="240" height="74" as="geometry" />
        </mxCell>
        <mxCell id="vfCL8tkKtulY90qjnvT6-73" value="" style="line;strokeWidth=1;fillColor=none;align=left;verticalAlign=middle;spacingTop=-1;spacingLeft=3;spacingRight=3;rotatable=0;labelPosition=right;points=[];portConstraint=eastwest;strokeColor=inherit;" parent="vfCL8tkKtulY90qjnvT6-71" vertex="1">
          <mxGeometry y="100" width="240" height="8" as="geometry" />
        </mxCell>
        <mxCell id="vfCL8tkKtulY90qjnvT6-74" value="Unidade de tratamento alternativa de baixa capacidade, como um Poço Artesiano, por exemplo." style="text;strokeColor=none;fillColor=none;align=left;verticalAlign=top;spacingLeft=4;spacingRight=4;overflow=hidden;rotatable=0;points=[[0,0.5],[1,0.5]];portConstraint=eastwest;whiteSpace=wrap;html=1;shadow=0;" parent="vfCL8tkKtulY90qjnvT6-71" vertex="1">
          <mxGeometry y="108" width="240" height="54" as="geometry" />
        </mxCell>
        <mxCell id="inP38kxYKpgd8RfZzEMa-13" style="edgeStyle=orthogonalEdgeStyle;rounded=0;orthogonalLoop=1;jettySize=auto;html=1;" edge="1" parent="WIyWlLk6GJQsqaUBKTNV-1" source="vfCL8tkKtulY90qjnvT6-79">
          <mxGeometry relative="1" as="geometry">
            <mxPoint x="1160" y="1110" as="targetPoint" />
          </mxGeometry>
        </mxCell>
        <mxCell id="vfCL8tkKtulY90qjnvT6-79" value="Análise" style="swimlane;fontStyle=1;align=center;verticalAlign=top;childLayout=stackLayout;horizontal=1;startSize=26;horizontalStack=0;resizeParent=1;resizeParentMax=0;resizeLast=0;collapsible=1;marginBottom=0;whiteSpace=wrap;html=1;fillColor=#fff2cc;strokeColor=#d6b656;swimlaneLine=1;" parent="WIyWlLk6GJQsqaUBKTNV-1" vertex="1">
          <mxGeometry x="1000" y="870" width="330" height="172" as="geometry" />
        </mxCell>
        <mxCell id="vfCL8tkKtulY90qjnvT6-80" value="Data e Hora&lt;br&gt;Analista&lt;br&gt;Método de Análise&lt;br&gt;Resultado&lt;br&gt;Em conformidade com a legislação?" style="text;strokeColor=none;fillColor=none;align=left;verticalAlign=top;spacingLeft=4;spacingRight=4;overflow=hidden;rotatable=0;points=[[0,0.5],[1,0.5]];portConstraint=eastwest;whiteSpace=wrap;html=1;" parent="vfCL8tkKtulY90qjnvT6-79" vertex="1">
          <mxGeometry y="26" width="330" height="84" as="geometry" />
        </mxCell>
        <mxCell id="vfCL8tkKtulY90qjnvT6-81" value="" style="line;strokeWidth=1;fillColor=none;align=left;verticalAlign=middle;spacingTop=-1;spacingLeft=3;spacingRight=3;rotatable=0;labelPosition=right;points=[];portConstraint=eastwest;strokeColor=inherit;" parent="vfCL8tkKtulY90qjnvT6-79" vertex="1">
          <mxGeometry y="110" width="330" height="8" as="geometry" />
        </mxCell>
        <mxCell id="vfCL8tkKtulY90qjnvT6-82" value="Procedimento de avaliação de determinado Parâmetro em um amostra por meio de um Método de Análise" style="text;strokeColor=none;fillColor=none;align=left;verticalAlign=top;spacingLeft=4;spacingRight=4;overflow=hidden;rotatable=0;points=[[0,0.5],[1,0.5]];portConstraint=eastwest;whiteSpace=wrap;html=1;" parent="vfCL8tkKtulY90qjnvT6-79" vertex="1">
          <mxGeometry y="118" width="330" height="54" as="geometry" />
        </mxCell>
        <mxCell id="vfCL8tkKtulY90qjnvT6-83" value="Parâmetro" style="swimlane;fontStyle=1;align=center;verticalAlign=top;childLayout=stackLayout;horizontal=1;startSize=26;horizontalStack=0;resizeParent=1;resizeParentMax=0;resizeLast=0;collapsible=1;marginBottom=0;whiteSpace=wrap;html=1;fillColor=#fff2cc;strokeColor=#d6b656;swimlaneLine=1;" parent="WIyWlLk6GJQsqaUBKTNV-1" vertex="1">
          <mxGeometry x="1480" y="770" width="330" height="162" as="geometry" />
        </mxCell>
        <mxCell id="vfCL8tkKtulY90qjnvT6-84" value="Nome&lt;br&gt;Tipo (Físicos-Quimicos, Microbiológicos, Hidrobiológicos)&lt;br&gt;Limites de conformidade&lt;br&gt;É Pontual ?" style="text;strokeColor=none;fillColor=none;align=left;verticalAlign=top;spacingLeft=4;spacingRight=4;overflow=hidden;rotatable=0;points=[[0,0.5],[1,0.5]];portConstraint=eastwest;whiteSpace=wrap;html=1;" parent="vfCL8tkKtulY90qjnvT6-83" vertex="1">
          <mxGeometry y="26" width="330" height="74" as="geometry" />
        </mxCell>
        <mxCell id="vfCL8tkKtulY90qjnvT6-85" value="" style="line;strokeWidth=1;fillColor=none;align=left;verticalAlign=middle;spacingTop=-1;spacingLeft=3;spacingRight=3;rotatable=0;labelPosition=right;points=[];portConstraint=eastwest;strokeColor=inherit;" parent="vfCL8tkKtulY90qjnvT6-83" vertex="1">
          <mxGeometry y="100" width="330" height="8" as="geometry" />
        </mxCell>
        <mxCell id="vfCL8tkKtulY90qjnvT6-86" value="Elemento de interesse para monitoramento na água. Ex: Cloro Residual Livre, Turbidez, pH, Coliformes Totais, Escherichia coli, etc." style="text;strokeColor=none;fillColor=none;align=left;verticalAlign=top;spacingLeft=4;spacingRight=4;overflow=hidden;rotatable=0;points=[[0,0.5],[1,0.5]];portConstraint=eastwest;whiteSpace=wrap;html=1;" parent="vfCL8tkKtulY90qjnvT6-83" vertex="1">
          <mxGeometry y="108" width="330" height="54" as="geometry" />
        </mxCell>
        <mxCell id="vfCL8tkKtulY90qjnvT6-88" style="edgeStyle=orthogonalEdgeStyle;rounded=0;orthogonalLoop=1;jettySize=auto;html=1;entryX=0;entryY=0.5;entryDx=0;entryDy=0;" parent="WIyWlLk6GJQsqaUBKTNV-1" source="vfCL8tkKtulY90qjnvT6-80" target="vfCL8tkKtulY90qjnvT6-84" edge="1">
          <mxGeometry relative="1" as="geometry">
            <mxPoint x="1440" y="970" as="targetPoint" />
          </mxGeometry>
        </mxCell>
        <mxCell id="vfCL8tkKtulY90qjnvT6-89" value="avalia" style="edgeLabel;html=1;align=center;verticalAlign=middle;resizable=0;points=[];" parent="vfCL8tkKtulY90qjnvT6-88" vertex="1" connectable="0">
          <mxGeometry x="-0.0914" y="3" relative="1" as="geometry">
            <mxPoint x="11" y="-10" as="offset" />
          </mxGeometry>
        </mxCell>
        <mxCell id="vfCL8tkKtulY90qjnvT6-94" value="Frasco" style="swimlane;fontStyle=1;align=center;verticalAlign=top;childLayout=stackLayout;horizontal=1;startSize=26;horizontalStack=0;resizeParent=1;resizeParentMax=0;resizeLast=0;collapsible=1;marginBottom=0;whiteSpace=wrap;html=1;fillColor=#fff2cc;strokeColor=#d6b656;swimlaneLine=1;" parent="WIyWlLk6GJQsqaUBKTNV-1" vertex="1">
          <mxGeometry x="1480" y="484" width="330" height="162" as="geometry" />
        </mxCell>
        <mxCell id="vfCL8tkKtulY90qjnvT6-95" value="Identificador&lt;br&gt;Tipo de frasco&lt;br&gt;Método de assepsia" style="text;strokeColor=none;fillColor=none;align=left;verticalAlign=top;spacingLeft=4;spacingRight=4;overflow=hidden;rotatable=0;points=[[0,0.5],[1,0.5]];portConstraint=eastwest;whiteSpace=wrap;html=1;" parent="vfCL8tkKtulY90qjnvT6-94" vertex="1">
          <mxGeometry y="26" width="330" height="74" as="geometry" />
        </mxCell>
        <mxCell id="vfCL8tkKtulY90qjnvT6-96" value="" style="line;strokeWidth=1;fillColor=none;align=left;verticalAlign=middle;spacingTop=-1;spacingLeft=3;spacingRight=3;rotatable=0;labelPosition=right;points=[];portConstraint=eastwest;strokeColor=inherit;" parent="vfCL8tkKtulY90qjnvT6-94" vertex="1">
          <mxGeometry y="100" width="330" height="8" as="geometry" />
        </mxCell>
        <mxCell id="vfCL8tkKtulY90qjnvT6-97" value="Recipiente no qual a Amostra é armazenada." style="text;strokeColor=none;fillColor=none;align=left;verticalAlign=top;spacingLeft=4;spacingRight=4;overflow=hidden;rotatable=0;points=[[0,0.5],[1,0.5]];portConstraint=eastwest;whiteSpace=wrap;html=1;" parent="vfCL8tkKtulY90qjnvT6-94" vertex="1">
          <mxGeometry y="108" width="330" height="54" as="geometry" />
        </mxCell>
        <mxCell id="vfCL8tkKtulY90qjnvT6-98" style="edgeStyle=orthogonalEdgeStyle;rounded=0;orthogonalLoop=1;jettySize=auto;html=1;entryX=0;entryY=0.5;entryDx=0;entryDy=0;" parent="WIyWlLk6GJQsqaUBKTNV-1" source="vfCL8tkKtulY90qjnvT6-58" target="vfCL8tkKtulY90qjnvT6-95" edge="1">
          <mxGeometry relative="1" as="geometry" />
        </mxCell>
        <mxCell id="vfCL8tkKtulY90qjnvT6-99" value="é depositada" style="edgeLabel;html=1;align=center;verticalAlign=middle;resizable=0;points=[];" parent="vfCL8tkKtulY90qjnvT6-98" vertex="1" connectable="0">
          <mxGeometry x="-0.0211" relative="1" as="geometry">
            <mxPoint as="offset" />
          </mxGeometry>
        </mxCell>
        <mxCell id="vfCL8tkKtulY90qjnvT6-100" value="&lt;h1&gt;&lt;span style=&quot;background-color: initial;&quot;&gt;Exemplo de Modelo Conceitual&lt;/span&gt;&lt;/h1&gt;&lt;h1&gt;&lt;span style=&quot;background-color: initial; font-weight: normal;&quot;&gt;&lt;font style=&quot;font-size: 15px;&quot;&gt;Este modelo é uma simplificação no domínio do monitoramento da qualidade da água para consumo humano.&lt;/font&gt;&lt;/span&gt;&lt;br&gt;&lt;/h1&gt;&lt;div&gt;&lt;span style=&quot;font-size: 15px;&quot;&gt;Artefato baseado no Diagrama de Classes da UML&lt;/span&gt;&lt;/div&gt;" style="text;html=1;strokeColor=none;fillColor=none;spacing=5;spacingTop=-20;whiteSpace=wrap;overflow=hidden;rounded=0;" parent="WIyWlLk6GJQsqaUBKTNV-1" vertex="1">
          <mxGeometry x="40" y="40" width="460" height="160" as="geometry" />
        </mxCell>
        <mxCell id="vfCL8tkKtulY90qjnvT6-106" value="Legislação" style="swimlane;fontStyle=1;align=center;verticalAlign=top;childLayout=stackLayout;horizontal=1;startSize=26;horizontalStack=0;resizeParent=1;resizeParentMax=0;resizeLast=0;collapsible=1;marginBottom=0;whiteSpace=wrap;html=1;fillColor=#fff2cc;strokeColor=#d6b656;" parent="WIyWlLk6GJQsqaUBKTNV-1" vertex="1">
          <mxGeometry x="550" y="413" width="260" height="160" as="geometry" />
        </mxCell>
        <mxCell id="vfCL8tkKtulY90qjnvT6-107" value="Vigência&lt;br&gt;Mínimos Amostrais por Parâmetro&lt;br&gt;Situação" style="text;strokeColor=none;fillColor=none;align=left;verticalAlign=top;spacingLeft=4;spacingRight=4;overflow=hidden;rotatable=0;points=[[0,0.5],[1,0.5]];portConstraint=eastwest;whiteSpace=wrap;html=1;" parent="vfCL8tkKtulY90qjnvT6-106" vertex="1">
          <mxGeometry y="26" width="260" height="74" as="geometry" />
        </mxCell>
        <mxCell id="vfCL8tkKtulY90qjnvT6-108" value="" style="line;strokeWidth=1;fillColor=none;align=left;verticalAlign=middle;spacingTop=-1;spacingLeft=3;spacingRight=3;rotatable=0;labelPosition=right;points=[];portConstraint=eastwest;strokeColor=inherit;" parent="vfCL8tkKtulY90qjnvT6-106" vertex="1">
          <mxGeometry y="100" width="260" height="8" as="geometry" />
        </mxCell>
        <mxCell id="vfCL8tkKtulY90qjnvT6-109" value="Regulação legal na forma de lei, portaria,&amp;nbsp; norma, documento de requisitos, etc." style="text;strokeColor=none;fillColor=none;align=left;verticalAlign=top;spacingLeft=4;spacingRight=4;overflow=hidden;rotatable=0;points=[[0,0.5],[1,0.5]];portConstraint=eastwest;whiteSpace=wrap;html=1;" parent="vfCL8tkKtulY90qjnvT6-106" vertex="1">
          <mxGeometry y="108" width="260" height="52" as="geometry" />
        </mxCell>
        <mxCell id="vfCL8tkKtulY90qjnvT6-110" style="edgeStyle=orthogonalEdgeStyle;rounded=0;orthogonalLoop=1;jettySize=auto;html=1;entryX=0.993;entryY=0.858;entryDx=0;entryDy=0;entryPerimeter=0;" parent="WIyWlLk6GJQsqaUBKTNV-1" source="vfCL8tkKtulY90qjnvT6-80" target="vfCL8tkKtulY90qjnvT6-107" edge="1">
          <mxGeometry relative="1" as="geometry" />
        </mxCell>
        <mxCell id="vfCL8tkKtulY90qjnvT6-111" value="é avaliada por" style="edgeLabel;html=1;align=center;verticalAlign=middle;resizable=0;points=[];" parent="vfCL8tkKtulY90qjnvT6-110" vertex="1" connectable="0">
          <mxGeometry x="0.0178" y="-1" relative="1" as="geometry">
            <mxPoint y="-1" as="offset" />
          </mxGeometry>
        </mxCell>
        <mxCell id="vfCL8tkKtulY90qjnvT6-112" style="edgeStyle=orthogonalEdgeStyle;rounded=0;orthogonalLoop=1;jettySize=auto;html=1;entryX=0.003;entryY=0.875;entryDx=0;entryDy=0;entryPerimeter=0;exitX=1;exitY=0.5;exitDx=0;exitDy=0;" parent="WIyWlLk6GJQsqaUBKTNV-1" source="vfCL8tkKtulY90qjnvT6-10" target="vfCL8tkKtulY90qjnvT6-107" edge="1">
          <mxGeometry relative="1" as="geometry" />
        </mxCell>
        <mxCell id="vfCL8tkKtulY90qjnvT6-113" value="deve obedecer" style="edgeLabel;html=1;align=center;verticalAlign=middle;resizable=0;points=[];" parent="vfCL8tkKtulY90qjnvT6-112" vertex="1" connectable="0">
          <mxGeometry x="-0.0386" relative="1" as="geometry">
            <mxPoint x="-1" as="offset" />
          </mxGeometry>
        </mxCell>
        <mxCell id="vfCL8tkKtulY90qjnvT6-114" value="1..*" style="edgeLabel;html=1;align=center;verticalAlign=middle;resizable=0;points=[];" parent="vfCL8tkKtulY90qjnvT6-112" vertex="1" connectable="0">
          <mxGeometry x="0.8287" y="-1" relative="1" as="geometry">
            <mxPoint x="10" y="15" as="offset" />
          </mxGeometry>
        </mxCell>
        <mxCell id="vfCL8tkKtulY90qjnvT6-115" value="" style="group" parent="WIyWlLk6GJQsqaUBKTNV-1" vertex="1" connectable="0">
          <mxGeometry x="1390" y="30" width="441" height="70" as="geometry" />
        </mxCell>
        <mxCell id="vfCL8tkKtulY90qjnvT6-103" value="&lt;font style=&quot;font-size: 16px;&quot;&gt;&lt;br&gt;&lt;/font&gt;&lt;h1 style=&quot;border-color: var(--border-color); font-size: 16px;&quot;&gt;&lt;span style=&quot;font-weight: normal;&quot;&gt;&lt;font style=&quot;font-size: 16px;&quot;&gt;Univali -&amp;nbsp;Disciplina de Engenharia de Software I&lt;/font&gt;&lt;/span&gt;&lt;/h1&gt;&lt;h1 style=&quot;border-color: var(--border-color); font-size: 16px;&quot;&gt;&lt;span style=&quot;font-weight: normal;&quot;&gt;&lt;font style=&quot;font-size: 16px;&quot;&gt;Prof. Roger Anderson Schmidt&lt;/font&gt;&lt;/span&gt;&lt;/h1&gt;" style="text;html=1;strokeColor=none;fillColor=none;align=left;verticalAlign=middle;whiteSpace=wrap;rounded=0;" parent="vfCL8tkKtulY90qjnvT6-115" vertex="1">
          <mxGeometry x="81" width="360" height="70" as="geometry" />
        </mxCell>
        <mxCell id="vfCL8tkKtulY90qjnvT6-104" value="" style="shape=image;verticalLabelPosition=bottom;labelBackgroundColor=default;verticalAlign=top;aspect=fixed;imageAspect=0;image=data:image/png,iVBORw0KGgoAAAANSUhEUgAAAw4AAAJ2CAYAAAD2RNVVAAAKN2lDQ1BzUkdCIElFQzYxOTY2LTIuMQAAeJydlndUU9kWh8+9N71QkhCKlNBraFICSA29SJEuKjEJEErAkAAiNkRUcERRkaYIMijggKNDkbEiioUBUbHrBBlE1HFwFBuWSWStGd+8ee/Nm98f935rn73P3Wfvfda6AJD8gwXCTFgJgAyhWBTh58WIjYtnYAcBDPAAA2wA4HCzs0IW+EYCmQJ82IxsmRP4F726DiD5+yrTP4zBAP+flLlZIjEAUJiM5/L42VwZF8k4PVecJbdPyZi2NE3OMErOIlmCMlaTc/IsW3z2mWUPOfMyhDwZy3PO4mXw5Nwn4405Er6MkWAZF+cI+LkyviZjg3RJhkDGb+SxGXxONgAoktwu5nNTZGwtY5IoMoIt43kA4EjJX/DSL1jMzxPLD8XOzFouEiSniBkmXFOGjZMTi+HPz03ni8XMMA43jSPiMdiZGVkc4XIAZs/8WRR5bRmyIjvYODk4MG0tbb4o1H9d/JuS93aWXoR/7hlEH/jD9ld+mQ0AsKZltdn6h21pFQBd6wFQu/2HzWAvAIqyvnUOfXEeunxeUsTiLGcrq9zcXEsBn2spL+jv+p8Of0NffM9Svt3v5WF485M4knQxQ143bmZ6pkTEyM7icPkM5p+H+B8H/nUeFhH8JL6IL5RFRMumTCBMlrVbyBOIBZlChkD4n5r4D8P+pNm5lona+BHQllgCpSEaQH4eACgqESAJe2Qr0O99C8ZHA/nNi9GZmJ37z4L+fVe4TP7IFiR/jmNHRDK4ElHO7Jr8WgI0IABFQAPqQBvoAxPABLbAEbgAD+ADAkEoiARxYDHgghSQAUQgFxSAtaAYlIKtYCeoBnWgETSDNnAYdIFj4DQ4By6By2AE3AFSMA6egCnwCsxAEISFyBAVUod0IEPIHLKFWJAb5AMFQxFQHJQIJUNCSAIVQOugUqgcqobqoWboW+godBq6AA1Dt6BRaBL6FXoHIzAJpsFasBFsBbNgTzgIjoQXwcnwMjgfLoK3wJVwA3wQ7oRPw5fgEVgKP4GnEYAQETqiizARFsJGQpF4JAkRIauQEqQCaUDakB6kH7mKSJGnyFsUBkVFMVBMlAvKHxWF4qKWoVahNqOqUQdQnag+1FXUKGoK9RFNRmuizdHO6AB0LDoZnYsuRlegm9Ad6LPoEfQ4+hUGg6FjjDGOGH9MHCYVswKzGbMb0445hRnGjGGmsVisOtYc64oNxXKwYmwxtgp7EHsSewU7jn2DI+J0cLY4X1w8TogrxFXgWnAncFdwE7gZvBLeEO+MD8Xz8MvxZfhGfA9+CD+OnyEoE4wJroRIQiphLaGS0EY4S7hLeEEkEvWITsRwooC4hlhJPEQ8TxwlviVRSGYkNimBJCFtIe0nnSLdIr0gk8lGZA9yPFlM3kJuJp8h3ye/UaAqWCoEKPAUVivUKHQqXFF4pohXNFT0VFysmK9YoXhEcUjxqRJeyUiJrcRRWqVUo3RU6YbStDJV2UY5VDlDebNyi/IF5UcULMWI4kPhUYoo+yhnKGNUhKpPZVO51HXURupZ6jgNQzOmBdBSaaW0b2iDtCkVioqdSrRKnkqNynEVKR2hG9ED6On0Mvph+nX6O1UtVU9Vvuom1TbVK6qv1eaoeajx1UrU2tVG1N6pM9R91NPUt6l3qd/TQGmYaYRr5Grs0Tir8XQObY7LHO6ckjmH59zWhDXNNCM0V2ju0xzQnNbS1vLTytKq0jqj9VSbru2hnaq9Q/uE9qQOVcdNR6CzQ+ekzmOGCsOTkc6oZPQxpnQ1df11Jbr1uoO6M3rGelF6hXrtevf0Cfos/ST9Hfq9+lMGOgYhBgUGrQa3DfGGLMMUw12G/YavjYyNYow2GHUZPTJWMw4wzjduNb5rQjZxN1lm0mByzRRjyjJNM91tetkMNrM3SzGrMRsyh80dzAXmu82HLdAWThZCiwaLG0wS05OZw2xljlrSLYMtCy27LJ9ZGVjFW22z6rf6aG1vnW7daH3HhmITaFNo02Pzq62ZLde2xvbaXPJc37mr53bPfW5nbse322N3055qH2K/wb7X/oODo4PIoc1h0tHAMdGx1vEGi8YKY21mnXdCO3k5rXY65vTW2cFZ7HzY+RcXpkuaS4vLo3nG8/jzGueNueq5clzrXaVuDLdEt71uUnddd457g/sDD30PnkeTx4SnqWeq50HPZ17WXiKvDq/XbGf2SvYpb8Tbz7vEe9CH4hPlU+1z31fPN9m31XfKz95vhd8pf7R/kP82/xsBWgHcgOaAqUDHwJWBfUGkoAVB1UEPgs2CRcE9IXBIYMj2kLvzDecL53eFgtCA0O2h98KMw5aFfR+OCQ8Lrwl/GGETURDRv4C6YMmClgWvIr0iyyLvRJlESaJ6oxWjE6Kbo1/HeMeUx0hjrWJXxl6K04gTxHXHY+Oj45vipxf6LNy5cDzBPqE44foi40V5iy4s1licvvj4EsUlnCVHEtGJMYktie85oZwGzvTSgKW1S6e4bO4u7hOeB28Hb5Lvyi/nTyS5JpUnPUp2Td6ePJninlKR8lTAFlQLnqf6p9alvk4LTduf9ik9Jr09A5eRmHFUSBGmCfsytTPzMoezzLOKs6TLnJftXDYlChI1ZUPZi7K7xTTZz9SAxESyXjKa45ZTk/MmNzr3SJ5ynjBvYLnZ8k3LJ/J9879egVrBXdFboFuwtmB0pefK+lXQqqWrelfrry5aPb7Gb82BtYS1aWt/KLQuLC98uS5mXU+RVtGaorH1futbixWKRcU3NrhsqNuI2ijYOLhp7qaqTR9LeCUXS61LK0rfb+ZuvviVzVeVX33akrRlsMyhbM9WzFbh1uvb3LcdKFcuzy8f2x6yvXMHY0fJjpc7l+y8UGFXUbeLsEuyS1oZXNldZVC1tep9dUr1SI1XTXutZu2m2te7ebuv7PHY01anVVda926vYO/Ner/6zgajhop9mH05+x42Rjf2f836urlJo6m06cN+4X7pgYgDfc2Ozc0tmi1lrXCrpHXyYMLBy994f9Pdxmyrb6e3lx4ChySHHn+b+O31w0GHe4+wjrR9Z/hdbQe1o6QT6lzeOdWV0iXtjusePhp4tLfHpafje8vv9x/TPVZzXOV42QnCiaITn07mn5w+lXXq6enk02O9S3rvnIk9c60vvG/wbNDZ8+d8z53p9+w/ed71/LELzheOXmRd7LrkcKlzwH6g4wf7HzoGHQY7hxyHui87Xe4Znjd84or7ldNXva+euxZw7dLI/JHh61HXb95IuCG9ybv56Fb6ree3c27P3FlzF3235J7SvYr7mvcbfjT9sV3qID0+6j068GDBgztj3LEnP2X/9H686CH5YcWEzkTzI9tHxyZ9Jy8/Xvh4/EnWk5mnxT8r/1z7zOTZd794/DIwFTs1/lz0/NOvm1+ov9j/0u5l73TY9P1XGa9mXpe8UX9z4C3rbf+7mHcTM7nvse8rP5h+6PkY9PHup4xPn34D94Tz+49wZioAAAAJcEhZcwAALiMAAC4jAXilP3YAAAAJdEVYdENvbW1lbnQAAIkqjQYAACAASURBVHic7N0LYJtV3T/w33mStGsmMMBWZagwb8hUXnHl9fJ6Q331bXqFjskYDAaDrkkQFEFBGEMuCipCk66wMRgMcFDY1iZ58Yb6xysb8CIOEYWJAuLGbcDarUme3/+cp2nXdd2SbW1/J+n3A3161mXpt8+y5PzynIufmQkAAAAAYF8px1F06s3lRFMmUTAwiXp7snxT8ybpXDA6/NIBio1yFjn0GXJ2e6PK6Q5N3rL72xhlBzvk35r/dpv7HApM3v3tfGmHfJPy35eTccgpy3+7reZ22d3fzgnkv42h9O1UntuZ30/7C7gvV9+Xb3RuZ26TcQu4L30/qsDbUZ7bKXYo6+S/L9K3U3lu52Uq4L7M9zT3l4/rFJDfKey+vO+pCvienP9nKPS+Cvk5zc+oCsjvfb9Cf858fwf6NlxAfir056QCsun74ULyK7XTfW3tvZaXNL+c98/CqPNeX2ZO99OBk/y05TU/TSrzU8Dvpz7HT3794dMfTp+fMuaz6v/I5j6rbK6tX9eV/uyar5m2q9u5r5lfe1/nMt0uI859vb8v4KM+9xa+oXaD+HkIp+p1xqN1tj79OM7orBn9OM3oh6r+0G1Ht139e47bt8PXzG1d06Y+7/d95te5D7+rP5dlKKs/+50+2tbTR1v7MjR5/wy9sjVDd6/PsLvQlf7Z98ZgRz0dKNM/Txm56UlU5p+kn+8m6XOgf60/WLcdNUmfqzLv759123EneZ+9x4Iq0+d4kr67cn3e9dcHHiPe70/yfs/cpv9xk/ua91HmfWz/WhmFEwETKxcvTeWTvqQ/3y9zdmC07VA4qGMX+Wl69d/IPIFs5+Q+8tEvVAXcrrBOQOHfc/RuV9h9hasL+HZGcPRuN6WQ+woU+P3KCrtZxcBrST6FnH7Dl//3C/oRRuv75e6rgFql8PvL3eeo3JXKf5OCz4Uq7P6cQu+zkGyF3MZ8u1G8r0J+TmdP72+UblPQtyw0V4G3VXv5c/oCt+gjCocxoKKp6/Wn48l7cmX9MdhpNx8B/fqy/S9jypTtf7Bi6L2U7fjU7BvSGP7KPdBwhn89922G/tUz3WpF0dDa/Qny+e7Wrf4Xq8HHsRryT1xtf74a+jVz24Fz4Btyu4Gf32vnfjEp2P9hVAW913b992MKB12k6MKDWH8oU7Cs4rZQy9j9xHvGKxLCiZt183+o/wV9kv51Oe3wt1ne/2noORi8g9zB++xs/1Nq8JD79fDHiBp22+HBdhGYOczttdYUDSqS0J045y6viIZCZGn92nfz/QszA1/Y8cQdefRh+vjOvb77UX9xBAAAKH4qmjhDd1iiQ74iF2ZnD1LPprOkQ6hI19vJ57+HCn6Ha9Q5NPAOev/fz3rqzX5dKMvIwomL9XGudIzC8A84FloinWKA9/hSvjW6+TbpLEWlvzb428AvdywcWL3HrucyAACA4qZak8eQz4lJ59iF56k308TL5m6VDKFaEkEK+Ffr5lskcwzxEqXTDby04XXpIANUODVTlzaXSucoCFM3beo9XzrGAHVG135U4e8mFA17ztQGuywcHHrPeOcBAAAoVap1dRX5ysy76OXSWUawjdzs8by0/nnJELnhNzfp5tGSOYYwcyFO4I6Gp6SDDFALumaQ338LWXapahcepa2Zk3hlc1Y6iKFmdfqoMninbh4lnaUo9dcG/zvwy2FXHBxccQAAABgFuXmDK3XzUOksu3AWx+t+Lx2CFnR/Qx+/LB1jEPO5Vo3Lb01O1UWDuRpT6ORJSS9Q2q3Xxag1V2qoquIH+hiSjlG0TG0wxPDJIYePYxQAAIDSNb36Gn38jHSMETFfy7HQcukYKpKsI0ddLp1jENMSfV6sGVbWP4RLmaJhqnSWAvQSZRq5o/4f0kEG6MdXhJQ6WzpHkduhNtixcFB02HgmAQAAKEUqkjpRv6aeI51jZPxTenzd+dJvwupz9H7dqVtBhS8RN9YeoE09EekQA3JDuG7RzRnSWQrA+v953Fb/B+kgA/Tj60v68XWtdI6iN6w2GH7FYe9XVAIAAABSC5JHkV8tlc6xC38lV80auryiBBVOHajLBbPCzf6SOYZ4hrJ9zbyyuU86yKDW7oX6OFM6RoEu5bbQj6RDDFAtaz5IgYAZJohlV/fdDrXB4AlVLYk3U8B50/jnAQAAKA1qfudBNCl4L9k5Hv01ymQaeXH9K5Ih+ud+zNCdOmXLgixbiKmR2xs3SgcZoCLJWaTUJdI5CsJ0J7XXfpva7Ng/T0VSb9VFg1lByZaitNi9ydQI3FH7ovnF9krM5+BqAwAAwF7ydn4OV9+um9Oks4zAJeY5umh4XDoIHTnjan22viAdI4f1eTmVY6H/kw4ywNukTDlmk7diWK7md9SzaR67LksHMdSszgqqCporWejTjqb+GmFY4eBkDy18d1wAAADYQbj62/r4JekYu3Cx7hx3S4dQ0dRcUupc6RxDfFufl07pEAPUmasOpfIy0/GtyHtjaUx/J7evUXoPkAG5wv1W3TxGOkvJ8WoEesg0h4z98h0iFAcAAKCoqWiySR+/KZ1jZHwXxeuukh5KosLdHyXHd4NoiB2tovjaRdRWI53D462gVF5eLDsbv0Yu19k0vIvCM8zqXM3SMUrT9hphe+HAPJVUMVwVAwAAsEdudSCztKmFL6L8CKX5NOmhJN5eBD7HzP2wZSO8x4h7TmF3oRUD83MrKJnHkC2b4O1OVj+uTuT20J+kgwzQ/wZP1f8GLS3cS4CpEXKGzjYvhjWCAQAArKFOvmN/mjLFdIj3k84ygo1EfU3c0dQjGULNWz6JJleac2THO+lML1LabeAbmt+QjjIo3H0ZFcu75cxf41goJR1jgC5KP0M+ZdOVrFI0UuGgMFQJAACgQN67xK3eu8RHSGcZQR+51Mzxpmekg1CwcgnZM+48TS7P5BtqN0gHGaDCidnkOBdJ5ygIU4cuGq6TjjFARVe/l3yBe3SzTDpLaVMjDFVS9BaRLAAAAMWoNXGhfu1slI4xMvdsjtc+IJ1CRVLn6XM0RzrHIOazuT30S+kYA1S06z/J8d9EVg5zG4bpZ/T42iiRJXNCoqsP1vVCQjcPks5S8obUCEOuOHBVMTxuAQAApPXvSkuXSefYhcXcVis+dCN3jr4jnWOIxRwLdUiHGKAiXW8n5Vulm5OksxTgCepJz5TeOHCAmtVZRpXBe/Tjy5a9QEqcqRH6eYVDbgmrSrlAAAAAxUGFU9PI4dvNq6d0lp0w/Yoyz31FOoYKd72PHP+dZM8677+ktPx5GaDmrphM+x/URbbM+9i9l4izdbys4VXpIIOqgjfq46elY0wcqtLUCmYxgf4rDuGjDiRsyw0AALBbuQ7fKt2ycXjEM9TbM5Nvmp+WDKHmrZlCwYBZVnSKZI4hNlDanckdsudlgPdmbau338B/SGcpQB+57vEcr/ubdJABKpK6iBTNlc4xwfhztcJL/cUCl1VhlBIAAEAe+x1kJvp+SDrGCLZQhhv4puZNkiHUrE4fVQXN7tnvk8wxxBuUTjdwR8OL0kEG9W8UeJx0jIK43MLx2l9JxxigookTdOX1bekcE5KpFQYLB3IPJrLviisAAIAtVCR1Lik6UTrHCJhcOo0Xhx6VDkKVwSvJltmzunNDrnuyLhoekw4yQEWTJ9m7UeAwTFdzPHSzdIwBuQ0EbyFMyBViaoWB4UnsHIS/BgAAgJHl1oq/WjrHyPgK3cG7WzqF1ylW6nzpHIOYL+V47WrpGAP0+fmYPi6lYuj4Mq2m9rXfpJgdNaBqXXMY+QLm77JCOsuEZWoFGigcHDpQNAwAAIClvNVvfP6VZOVcQF5D8XULqS0kmkIt6JpBfv8S0RA7upva6y6nmBUbQ5NqSbyDAk6RrKDEj9Drr8yxZldts8niAVO6dRPbBkjK1Qq5Kw6EKw4AAADDqFCsnKZN69TNqrw3Hn/rqTd7snQHT0VSb9VFg+kUW/JusO74pvlUdl2WTmKoSOebKBA0k8WLoOPL/6JtffW8fM4W6SSGOnaRn6ZX36WbH5DOMuExDbnioPigYrhyBgAAMK6mTWsne3Y9HoJfpnSmgZc2vC6ZIldY3aubh0rmGGIjUV8TdzT1SAcx+pe7n7GCimMFpR5ibuAbm56VDjJoevX1+vhF6RjgGXLFgdQBkkkAAABso6KJs4icedI5RpAhV83ijoanpIPQtMMX6+PHpGPk9JFLzRxvekY6yKDWGVfoR1KDdIwCmAn2p3K8dq10kAEqmjpHf1ognQNyVP/yyrmhSrwfKVxxAAAAMPonsjrXS+cYEfN5HA/9TDqGiiS/ovsOp0nnGMQc0eflAekYA/T5OUWfn29I5yjQtzheIz7BfoA+d3X63H1POgcMYWoFGhyqRPuJhgEAALCEN2ZfKdOJKpPOsjO+mWOh66RTqGj3F0j5bOrYtenzYs3kbP0Y+rh+DN0onaMgTLdyrOZK6RgD1ILkUeRXZi8QW3YdByNXK+SuOKj9MMUBAAAmOtWyJECBqWYy5lTpLDth+j1t2CA+dEO1rHkXBfw/IntWmfo5rV/7VVu2j8gtHWomi5dLZynAr2nD02dKhxigzug6hCr8ZgUlvKFtG1MrEK44AAAAbBeY+n19/KR0jBE8R5ltx3Eysk0yhO7Y7UcVAbNC0EGSObbjp4jSs/j+hRnpJMaQ82PjKlzDPU09PeKPqQFq7orJtN9BXbr5duksMIIdrjgQvUkwCgAAgDgVTs0hh6LSOUawldg1KwX9SzKEt0JQa7UZQjJdMscQr+nCoYHbGl+SDmL0r6BUbVZQ+pB0lgJspkymjm9q3iQdxMg9tlbozulHpLPALnm1wkDhYMnaywAAAONPRRNHk+PYOSbdpflWrHbTOuMy3bGrk46R4xLzHI7VrpcOMig84zv6WC8dowAZyvIsXlz/uHSQQf3nrlE6BuyWVysMFA5FsJMhAADA6FPR1QcTl92jO8X2vYnG9D2O16yQjqELqxNIORdK5xjk8rc4HuqWjjFARVKnklJfl85REOZzuT30Y+kYA1QkOb9ozt3E5tUKAztHT8LkaAAAmGjUrE4fVVXcqV8DD5POMoL7aFOP+HKeqrX7w+Tz3Uy27BTLdCctrvsOxUU3zB6kIon/0kVVh3SOwnCcY6GYdIoBKpr8nC4a4tI5oAA8tHCw8V0WAACAsVYVvEIfvyAdYwRP0pb0ibyyOSsZQp3Z/RYq963WzaBkjkFMD+li6nR2XZaOYuRWULqHimMFpR/T+nXnEIWkc3hUS+IICjiduhmQzgIFUDsOVSqGBzwAAMCoUeHE8eQ450vnGMFmSrsNvKzhVckQalZnmS6szH4W75DMMcQL1LetURdTvdJBDHXyHfvTAVPMcKkiWEGJH6d0rz2rT53eWUnBYFI3p0hngYJ5tcJA4YBNNgAAYMJQ0cR0XTTcQrYMv9nO1Z282dxR+4R0EKoMmiEttixNu02fl+P4xqZnpYMY/UPcDjArTH1AOksBNpGr6rijebN0EEPNWz6JJr/Z7HMxTToL7BGvVvD3P/iDtj1xAgAAjAnV0nkABYL3kp1LkV/IbaGUdAgVTYZJqfnSOQYxtXAs9DvpGIMqg9/Vx1rpGAXYRuwex/Hap6WDGMpxFIW7b9KtT0hngT2mzLK5fjrwFceWoYsAAABjKbde/G26+V7pLDsxk37ba6+mNtlJv6o1+RnyqWtFQwzFfK0uGm6RjjFAhZOnkaO+Jp2jIMxncqz219IxBrUmLtHH2dIxYC+deYjPT31lPkxLAQCACSFc/S19tGUvgu0smfSrzkocTgHHzGuwo2fA9BN6fN351kzojXZ/ihxfkaygRFfqgutW6RADVDgxmxxnoXQO2Ae6ZvBT1of5DQAAUPJUOBUih2zsuPybKNMkPelXRTrfRGXBNbr5ZskcQ/xVFw5ftmZCbzg1jZTP7PdRJp0lP76H4usuprYa6SAe1dr9CfL5biL75hTBntA1g5+2TnJpf+kkAAAAY0dFut9Njs9spOZIZxmmj7LZ47m9/p+SIbyx562J5br5QckcQ2zWRUMDx2tekQ5ieCsoTZnSRfYUVbtmrl5l+BR2F1qx0YVXcPl8ZjI0Nhsudrpm8NPkLYw5DgAAUKq8d9IpaDouFi796Ia5ve430imotXshKTpOOkZO1ltZKhb6s3QQI7eC0o90c7p0lgI8Ry43cEdtj3QQQ81bM4UmBxK6WSmdBUaBrhn8tGWyS5OlkwAAAIy+7au4WLhsJlOMY7VLpWOoSOo4UuoS6Rzb8TdtWFlqUGXFNfos/Y90jAJs0YVoPbfXPicdxFAtSwIUnGrmy7xfOguMEl0z+GnTepeqqqWjAAAAjL7WhFn95gTpGDvj++nxdecSyY5BVy1rPkiBgBmiZMfYc6YVHAtdIx1jgIomztDV57nSOQrgkuvO4Xjtw9JBBvmnxvWj6vPSMWAU6ZrBT79clKXpCekoAAAAo0pFk58jpa6SzjGCDZRm8V18VUvizbpoMJOhbdnP4kHq2WTN3hEqnPg0OU5cOkeBLtRFw2rpEANUJHWeLhqs+buEUaJrBr9Z+k1FU+bJy5/3DwAAABQB3Sl+BwWcO8m+17Y3KJ1u4I6GFyVDeMNIAt4wksMlcwzxPPVmmnjZ3K3SQQzVsuZduqi6RzeLYQWlm7kt9F3pFAN0wdWoCy5r8sCoyZiaYeAJNU32PbkCAADsMTVv+SSa/GbT6bNtQibr/+bqouEx6SDkP+SH+vgZ6Rg5WynLTby0/nnpIEb/zuIVZgWlg6Wz5MX0K9rU2yIdY4AKpz6iiwYbVy+DfWdqBRpaOFTIZQEAABglkyvNBl0zpGPshPkyjoXulY6hIsn5pFSrdI5BLs3n9tCD0jGM/hWUgmYFpSOlsxTgb6T6jueVzX3SQQx15qpDqbzcFFxYcqc07VQ4AAAAFDUVSbWSornSOXbCdC+11y2imOzS+iqc+iQ5KiYaYgd8DcdDK6RTDKoMfl8fvyQdowCvUtqt447Gl6SDGN6Sx+XeVZpDpLPAGGHyCtSBwsGKMYUAAAB7K7c77bXSOUbwGFHPXDM+WDJEbt5HJ9kzbj9FG3u/KR1igIomziLlfEU6RwEy5NJM7qh9QjqI4V2lqQzeoZsfls4CY0jRNvNpoHAQ3eYeAABgX6iWVW+jQJmZ7GtLp7gf04uUdhv4huY3JGPooiFIAWVW3amSzDHEE5Tumc0rm7PSQQwVSX1WFw1t0jkKwhzleOhn0jEGVQW/p4910jFgzHm1Qn/hwLTVkhWcAQAA9oia1VlGVRW6aFBvk84yTIZcdxbfULtBMkRuE7ybdcuWd4RfJepr4I7mzdJBDBXpfjcpnyk6A9JZ8mK6jmOhDukYA1Q0tUB/Okc6B4wD7h+d1F84KFxxAACAIlVZca1+IfuEdIydMJ/L7bX3S8eg1sSFZM8meFnK8pe5vfFJ6SCGmrdmCk0OdFMxrKBkhnZt6vmadIgBqjX5RfKp66VzwDhRQ684EPfasmkkAABAoVQ0NdeqFYIG8VKOhcQnIatIsk6fn8ukcwxi+jq3h34sHcNQxy7y05HVK3XzCOkseTH9iTa/eiKvnG3H0K5oYjr5HHPusJT/hMFDCwclOvYSAABgT6kFXTPI77dm2MZ2/Bva2BuWTuF17pRzO9mzpv5yjtXYM3n9yOprSdF/S8cowEZy03V82+zXpIMYqnV1FTllCX3uDpDOAuOpv1YYuOLwBq44AABAsVCnd1ZSMGg2eZsknWWYf9I2V3xtfTW/8yCaVLFGN/eTzDHE7+jpp8+SDjFARZItpFREOkcBthJTE7c3/F06iKFmdVZQZXCN7jIeJp0FxhsPLRxwxQEAAIqDN8RkevWduvkO6SzD9JKrO3k31v1bMsSQITjvkswxxLO683scJyPbpIMYKpr8nC4aimEFJdb/n8Gx0G+lgxi5Sfa36OZHpbOABFxxAACAYnRk9VX6+DnpGMOw/u90jtc8JB1En5/v6Zf0z0vHyOmlTKaJF9e/IB3EUNHV7yUK3EXFMDaf6XJdNNwuHWNQa/e39Rm0ZZI9jLsdrjiQFePmAAAAdkdFEyeQcqxZWWaIqzlWc6d0CBVOnkaOsmUTs/5ianH9OukghgqnDiRV1qWLqoOks+THd1F73ULpncYH5BYhuEg6B4jyaoXcPg5qMy44AACAzVTLmg9SILCM7LtEnqKNPeKdKhVNfkwXDYulc2zH3+FYSLyYMnLDt+7Sj5z3SWcpwIO0sfdU6Z3GB6ho96eIfDdI5wBhplagwX0c3FftWXQBAABgR7n19u/VzcnSWYaxYgdkdeaqQ6m83Jyfcskcg5i6qX3dt6gtJJ2k35EzrrNo+Nbu/JPS2xr148mK/bVym+PZ87gCOV6tsP2Kw6vWvX8DAABAZlLmIodaq1fo5rulswxjxQ7I3ko3VRWrdPOtkjmGWE+bX53D7kIrxtmoaDJs514fO3mDMlzHHU3/kg5i9K/MFUxScWyOB2PN1Aq0/YqDftLzieYBAAAYUbh6oT5a8tb1oCwxncgxC3ZArgou0ccZ0jH68cuUzjRYs+dAOPV5ctQPpXMUQD+eeDYvDj0qHcTQxWiZflyZ5Y7fK50FLOHVCgOFg+t7GSOVAADANrrjV69fn74lnWNn/E2Ohe6TTqEiyfNJqZOkc+Rk9McJ3NHwlHQQQ4W73keO/24qhhWUiC/Qj6du6RSDKivMnIbPSMcAi5hagQaHKqVfIgqI5gEAABjKWzrTKbuVbJuEx7RCd/KukY6hoskaXTRcKZ1jkEtf5Xjo59IxjNwwG9MRnyKdJT9eym2h70unGKAiqW/ox9Wp0jnAMs62F82n/sLBSb+IwgEAAGyhzujajyoCZtz+AdJZhllLPZvmS4fIvZtu1vi3Y5wx000cr7FiUzXVsiRAk6aavRreI52lAL+g9PPWzL9QkWSzLhqukM4BFuLsS+aTVzhwrPkNFU2ZHR0xax4AAETldqi9WbeOlM4yzAu0bdtxvGzuVskQ3gpTwcAasubddP4Nbeq1pvNLgUNMAWPbBoEjeZK29jTzkvlp6SCGak0eQz61nGy7wgc22GZqBdMYOu7PVBKHyOQBAADICSfO18fjpWMMs013kI/jG5uelQyhZnX6qCpo9kawZT+Cf9A293he2dwnHcRQ4VSUHHWWdI78+GWidB0vaX5ZOomhWhLvoIBjitGgdBaw0ksDjSGFA/9bP3RQOAAAgBgV7f4Ckc++oRIuL+B46HfSMagy+B19/JJ0jJweymYb+ca6f0sHMVQk8d/kOD+QzlGANGV5JrdbsCKXpk6+Y3+aMiVB9iznC9bhwX/jQwoHtVEiCgAAgKFa1xxGvoB5N92OcfsDmK7TRcPN0jFUODWHHDpPOkcO62rqNG6ve0Q6iKFaEkdQwFlJxbCCEnOY22vvl45h9F/BmmL+zX1QOgvYTI1QODD9G5vAAQCAhNwmZmaHWrs2m2L6GT2+VnfWa0Rj5MafLxENsQO+gttq75JOYajo6oMpUFYsKyj9gGMhe/4eK4NmjwvZBzfYj2nw4sL2wkF5Q5VE8gAAwARXGbxRHz8sHWNH/BRt653F9y/MSKZQZ3QdQhV+s8LUJMkcg5hWU/u6hdQmvyeft4JSYKrZq8G2XcV3xtRNm3rPl44xoH8+CEWkc0ARUCMOVaIXBKIAAMAEl+vAzJHOMczruqfXID15VYVi5XT4NLODry1zEB8j6jmZ3YWudBBPYGpMHz8rHaMAf6StmZN4ZXNWOojh7QHiqGulc0DRGKwRhhYOzwsEAQCACUwXDZ/URYM1m1/l6E5x9mRuq1svHYSmTTM7+H5UOoaH6UVKuw18Q/+yjNJUJPkVUupM6RwFeEGftzpeWv+6dBBDhbs/RI7vR2TbXCKw2WCNMKRwcJ/HYwgAAMaLak1OJZ8y4+Tt2oGU+VKO1a2RjqEiqXNJ0VzpHDlpcnkm31C7QTqIocKJ/yHHsa3gHEkvUaaRO+r/IR3EUC2r3kaBcrOC0n7SWaCYuCMUDqyrCUxxAACAcaBmdZZRVdCMTbdtCci7qb3ucorJjsTxlqVVvqtFQwzFdA63h34pHcNQC7qOJL/fvtW3dsb6/3ncVv8H6SCGakkEddFgCuK3S2eBIsMjXXHIqOcte88HAABKVVXF9fr4MekYwzxKr718GrsuS4ZQC5LvIb/PnqVFmTo4VtMuHcPwVlDyB7p08wDpLAW4lNtCP5IOYShnkUPhGbfqZrV0FihCpkbIGXxS4o7aHhVNbdLNSpFQAAAwIahI6nRS1u3uq1//tjXw8jlbJEPkNuMy7wofKJljENOvKPPc2dIxDO8qVWXwHlL0LukseTHdSe2136Y2O+aQU7j6SrJvN3YoDptMjTDwi+HvZvydUDgAAMAYye1HEJfOMUyaXHcmx5uekQzhvSvcWr1CN98vmWMQ6z5Bb89Mvml+WjqKp6rCPG4+LR0jL6bfU8+medJXrgaoaHKePl4gnQOK1t+H/mJ44WCeNHEZCwAARp1qXV1FvrJO3SyXzjLMVzhe+yvpEBSecbk+1knHyNlCWW7km5o3SQcxdOf3q2ZHC+kceZliy+1r4GVzt0pHMVRr4ljyOR3SOaCo7fCGyo6FA+vfxARpAAAYZerYRX6aXm3G7Vs2MZNv4LbQYukUumP8ZX38hnSOHNb/ncKLQ49KBzG8PQdI2TNRfNdeo0y6njsaN+a/6dhT4a73kc9nFiDADFbYe7y7woH479g9GgAARt2RM0zH7zPSMYZ5gDb2io/fV9HE0UTOTWTLCzDTIo7V3Csdw9DnZro+N8WwglJWn7gTuaPhMekghjeJ3Ckzy64eJJ0Fip2pDbYbaagSAADAqFGR1Imk1LnSOYZ5hrJ9zbyyuU8yhDqz+y1U7lutm0HJHNvxPdRed5n0crSGakm8mQKOWUFpf+ksBTiP20Ip6RCGykXyMAAAIABJREFUt9v4tGmrdPPd0lmgJOxuqJL7DCnbi3oAACgWakHyKPKrpdI5humhbLaJ22WHlPTvZVFxD9kzfOtReu2VuTZM6h1ybqZJZ8mrf7naH0rHMJTjKGpNmH9vn5TOAiUik/n70F/uWDi89vrfacqU8YwDAAAlSs3vPIgmBc2QF0veTffoTrF7GrfXPSIdpH+VIPUJ6Rg5VixHO6iqokOfm09Jx8iL6We2LFfrae3+FimaIx0DSsiWLbu+4sC3zX5NRVOvkC3rRwMAQFHq33Cq+nay7x3jq7it9i7pECqSjJCyZpWgPnLpeOnlaAeoSOo8fW5Ok85RgCd04XACd9ixXK03wV6pRdI5oJTwy6Y2GPqVkXal/Kv+OGZ8AgEAQElqnXGZPn5JOsYOmLqpfe3F1FYjGiO3ROa1oiGGYo5wPPSAdAxDRRO1uur8jnSOArxEnK3jeN0r0kEMXTR8TB9vJlsm2EOJUH8b/pWdCwemJ/XDDoUDAADsFRVONJLjXCidY0f8OG3ePIfdhaKzftVZicMp4JhlaUd6404AxzkWWiKdwlAtaz5IgcAdZP8KSn3kusfromGnTpUE7zFV5pgJ9pOks0CJMTXBMDs/cSn+CwpWAADYG6olcYTuGC8nu15IXqEMNQ6/5D7eVKTzTVQWXKObb5bMsR3fT+vXnUMUkg7Svzmgv8ysoLSfdJb8eIEVGwaS+ffWeQCVVZhlV6uks0AJ8mqCHY3wjgc/adfzPQAAFAN18h3705QpZhlIm5bPzBBlZ/Hiur9KhvDmfLRW36abH5TMsR0/RZQ+ge9fmJFOkls+1KygdJh0lryYruZYaJl0DKN/U8UZd+vWkdJZoFRxAVcc2HkSdQMAAOyJ3DKQ5krDEdJZdsQXcFvdT6VTULh6oT42SsfIeV2flwZua3xJOojn8Gk36uN/ScfIi2k1ta/9JsVk58gMmj4jpv/lfUE6BpSwjCrgikPGfZICjlnDGeUDAAAUJpz4JtnTMe7HdCvHQj+QjqHCiePJcS6WzpHj6v/mcLx2vXQQQ0WS55NSp0jnyI8foddfEZ8jM0BFk181sxukc0BJY2Le6UrtToUDd9T2qGjqWbJnQxoAALCYiqS+RIq+LZ1jmD9QzybxjlX/BngWzflguoTjNV3SMQwVTtWTo66SzpEf/4u29dXbssdF7rxdLZ0DSt6zpiYY/sWRV3Vg+ot+ikPhAAAAu6U7MdPI4dvNYCXpLEM8T72Z43jZ3K2SIdTpnZVUETSr3UyWzLEd30XtdVdSTP5NcxXu/hA5PrPPh02Pm5H0EHMD39j0rHQQQ7V2f5h83nmzfeUpKHamFhjBLpaD8yZIf34s8wAAQHFTLYkgBZx7desg6SxDbKUsN/HS+uclQ6iWJQGqmHo3KWsm/D5MaT6NXZelg6gzu99C5b5u3XyTdJY8mFw6leO1a6WDGKo1OVUXDcVw3qAk7Dwx2thF4aCsGPsIAAAW8ztL9fEo6Rg7YD6L20MPSsegwNTr9PHT0jFy/k2caeSO+p2GHYw3bwWlw6fpYpPeIZ0lL6aLOV5zt3QMQ81dMZn2P9AUDVOls8BEMXItsIvCwf2j/VcPAQBAioqmziFFJ0rn2BH/gGOhW6VTqEiyhZRaIJ0jZxtls8dze/0/pYN4ph1uNpv7uHSMvJhWUHutHcO6+pfyXaGbH5bOAhOJqQV2NnLh0JP9E03GykoAALAz1Zr8DPnUNdI5hvkxbew9XzqECqc+SY66TjrHdtzK7XW/kU5hqEjqG7qgOlk6R378G9qw4QwbhnV5Wquv1r0xu1Ysg1LHXi0wghELB17W8KqKpv6hm+8c01gAAFBUVKTr7eTzr6RdXrEW8Vdy6URe2ZyVDKGiq95JTrnZyKxMMscgpuus2awsmmzSRcMV0jkK8DT19DZxMrJNOoihC9EzyaGvSeeACecfphYY6Td288TPj+mHLAoHAADw5Hb47dTNKuksQ7xGmUwjL65/RTJE/xj0g9boZqVkju34p/T4uvOI5DcrU5HUf+iiwQwhs30M9Gb9WKrjm5o3SQcxVLT7C+T44tI5YCIyNcDIdlM4KDO2qXYM0gAAQDGadnhMH4+RjjGES8xzdNHwuGQIb9fscOJmsmei+F/JVbP4/oUZ6SC6aHgrKTIFle0rAWUoy7OkH0sD1IKuI8nvNxOzbbqyBxOGGnF+g5HvisNYpAEAgCLTP2RCnSGdY5iLORbqlg5B4e6L9HGmdIyczcTUwPEa0Sswhpq3fBIFK1dRUaygxOdye+jH0jEM1bq6ivxlCd08QDoLTFR7dcUBhQMAAHibdX2UHF+bdI4d8V0Ur7uK2mRXvVHR7gYi3yLRENu5+r+TdNHwZ+kguaswZrnej0pnyY/jugCNSacwhhRbh0tngQksk92LKw7rH/oLTa82k4PKxyITAADYzxtq4vjMvAY7Jvx6+BEbNjNT0cR0XTTcRvaM3b9QFw1J6RCe1sSF+niSdIwC/JjWrzuHKCSdo7/Yak0sI1UEy9VCKdtGf3nkSaL6EX9zl4WDGRupoilTcVSPVTIAALCXt/tx4JCVumXTplMbifqauKNJdDMzFV19MFHAjN3fTzLHELdzW813pUMYutg8Tnd+L5POkR8/TuleK+aCeMKJS/XRsr1RYAL64+7+Tex+0g3zWlIKhQMAwEQUOOR7uhv4KekYQ/SRS80cb3pGMoQ6dpGfplebJWnfJZljiLW0ZZMV809UNHE0KacYVlDaRK6q447mzdJBDBVOzdFn7GLpHABe33838hQOtA7THAAAJp7+jow6WzrHjtyzOV77gHQKmj7j+/r4OekY/fhflKUmXjZ3q3QS1bLqbRQoN1dhJktnyWMbsXucfiw9LR3E6N80kMx8EPS4QJ7p++9GvsJht1UHAACUHm/dfYdukM4xzGJuqxXPpKLJefpoS0G1lVzdAW6ve046iJrVWUFVQTOp91DpLHkxn8mx2l9LxzBUy5p3kT9wL2E+KdgiT99/94XDS71/1k8EW8j+dw8AAGA0OP6D9dEMwwlKRxnE9CvKPPcV6Ri6oPo4KdUunWMQ81kcr/u9dIzcCkpmh+r/lM6SH1/FsdCt0ikMFU4dSIGAWXb1zdJZAHK2eH3/3dht4cArm7MqmnpYNz85qrEAAMBOPmU6gIdJxxjiGertmck3zU9LhlBnrjqUysvvIVveGWb6vi0dYGrt/pY+flk6Rn58D8XXfYvaLFhBqX/hgU7dOkI6C8AQD5u+/+5ukH9HQuZ1pBQKBwCAiWG6dIAhtlCGG/im5k2SIbxhOJXB1br5VskcQ9xHm3oukA5hqEiyWfcRbNnHYteYHtKPpVPYXSi78ccA/9TF+nisdAyAHZg+fx4FbGWuMM8BAADGG5NLp/Hi0KOSIXJr699Eij4imWMQ01+oJ31ivncFx4MKpz5CjlpO9k/qfY5cXYB21Iou4TtAF1vn62LrdOkcADvL3+cvoHDI6jvxjUYaAACAwjBdzvGau6VjUDhxPtmztv6rxJkGXtbwqnQQdUbXIVThNyso2TMXZmRbiNx6bq8Vn0Bu9O9xoa6SzgEwsuwoFA7tDU/pJ86NulU1GpEAAAB2j9dQ+7pLKVYjmkKFUyFy6ErRENtldTF1Isfr/yIdJLeCkhm6ZdPGgCNx9Tk7hWO1D0sHMdSCrhnk99u00zjAUBu9Pn9s96P58hYO7Lqsoqnf6GbTaCUDAADYhfXUmz1Zeiy6iqTer7t3t5M1nTy+gGOh+6RT5IZu3aybxbA57IUcq7lXOoShIl1vJ7+vi+y/QgMT129Mnz/fjQoYqmTwr/XDHoUDAACMIX6Z0pkGXtrwumQKb5lMh8wwnAMkcwyxnNtC35cO4WlNXEKKZknHKIA+ZzXflQ5hqDO69qMKf7duvk06C8CucUF7mxRWOGTp15jmAAAAYyhDrprFHQ1PSYZQszp9VBW8UzffI5ljENPvacPTZ0nHMFQkOYuUWiidIz/+f7Sx90zpFIb3eKr0Hk9HSWcB2C3T1y9AYYWD+/wj5JuKjeAAAGBsMJ/H8dDPpGPoTp55l/qL0jFynqPMtuM4GdkmHURFEtWkHDNEyfYVlP5GlD6OVzb3SQfxVFX8QB/lN44A2L0tXl+/AAUVDtwxP62iqQd187P7FAsAAGAnfDPHQtdJp1CR5Cmk1Nekc+T0UibTyB1N/5IOolqTU8nnmMnQFdJZ8niV0m4ddzS+JB3E0I+niH48nS2dA6AAD5q+fiE3LHCOA5nLpb8mhcIBAABG1e/o6Q0LpEPozvEx5FM3SOfYjufz4vq8mzGNNdWSCJLfMfM9DpHOkkeGKHsCd9Q9IR3EUJHUl3TRcK10DoCCcGHDlIzCCwdyf23N4hIAAFAKntUvWOJDcXJ7EqzSzUmSOYb4LreFbpcO4a2gFE7copt2bH63O8xRjtX9VDqGoVrWfJACgZW0R30sAEnuGBQOm1/7PU2ZktmjPwMAADCyrcTucRyrfUEyhJq3fBJNrjRFgx3vqDMlqX3thdQmu4eFpzWxSB9nSsfIj6/nWKhDOoWhIqm36qLBrKC0v3QWgAJlaKv7u0JvXHARwLfNfk3/g1hHij66d7kAAAByXJrP8dq8u5SOuWClGZ50jHSMnD9Tpuck6T0sDBVNfpmU+pZ0jgKkaGPvV6VDGLmN8cywrndKZwEoGNM6Xlpf8BLYe3j1gH+u/2mgcAAAgH3A13A8tEI6he4cf013jk+RzpHzCmW4gTuaN0sHUdGu/9Tdg2Vk+wpKTH+iza+eyCtnZ6Wj5IZ1LSd7ilCAApm+feH2sHBQ5s4v2rM/AwAAMOg+2tj7TekQqjX5RfIpKzYIo/6JvbN4cd1fpYOoM1cdSuVlZuiW7SsobSQ3XWdGQ0gH8YS7r6CiGNYFMJwaw8Jhw9O/pWnTesn+JxQAALDPk7QlfSKvbBZ9h1gtSL6H/MpsymXH1qZmDwsLJvaquSsm0/4HmaE2tu9wvJWYmri94e/SQQwVSZ1KSokXwwB7odfr2++BPSoczMoXKpr8tf5n8oU9ywUAABPcZkq7Dbys4VXJEKql8wAKeOPQD5TMMcQyK/awcBY51Fp9q24eLZ0lD9b/n6HP2R51dsaKak1+xq5lfAH2BP96T1e124sVkrxLGigcAACgUFn9AjWbO2pF19jPdY7NMqfvl8yxHf+Gnt7QKp3C0zrjMlJ0nHSMvJgu10WD+FK1hoqufi/5AvfoZpl0FoC9s2fDlIw9LxwymZ+THyuyAgBAwS7itlBKOgSFq6/Ux5B0jJx/0jb3eOk9LAwVTswmx7lQOkd+fBe11y2kmPiiU6ZoOFjXCwndPEg6C8BeM336PbTnFcDLfY9Qlf8VsucyLwAA2IrpTmqvvZraZDt7KpI6kRSdLxpiux4it5FvrPu3dBBvBSXHfxPZvoIS0Vra2Hsquy5LB1GzOsuoMniPPmPvkc4CsA9e8fr0e2iPCwczqU1FU6ZCad7TPwsAABMI00O0qed06c6eCqc+Qg7Z0jnW58I9jdtqH5YOoloS76CAfzXZs2P2rvyT0tsadP+jVzqIpyp4oz5+WjoGwD76+d4sVLGXY474f/VTDgoHAADYlX8TZZqkO3veTr4Omc6xHasBMl/Jsdq7pGMMWUHprdJZ8nhDl1r13NH0L+kghoqmzJCuudI5APaZy3s1fHTvCod03/9SoNy8g2TDuzcAAGCXPspmj+f2+n9KhlChWDkdPs1MXj1UMsd2vIba111CMdlpFt4k8XD1bbr5H6JB8nOJsnM4Vvd/0kEMFU2cQORcLp0DYBQwZfvu25s/uFeFg6n8VST1sC4bPrI3fx4AAEqZG+b2ut9Ip6Bp09r18ePSMTxml+Ot2ZPZXSg/szc8w3R+m6Rj5MV0gS4a1kjHMFS4+6Pk+G4hvGEKpYDp4b29ircvyyOZSxwoHAAAYDumGMdql0rHUNHE2UTOPOkcOS9RJt3ISxtelw6iz8vJ+rwUwWZlvJRjoe9JpzBUdNU7ySm3Z7gbwL7b61Xu9r5w4GyKlO/ivf7zAABQYvh+enzduUQ1oilUNPk53Tn+vmiI7TKUdU/gjoanpIPo8/IxfV5ulM5RgF9Q+nkr9rdQJ9+xPx0wJUGK3iKdBWDUmD78Xtr7wmHxww9SuHqTblXu9X0AAECp2EBpnsX3L8xIhlAta95FgcBK2rcr6qOIz+H22vulU/SvoOSsIvtXUHqStvY085L5aekg6thFfppebR5LH5DOAjCKNnl9+HjdXv3hvX5iNeM0VTR5n6nH9/Y+AACgJLxB6XQDdzS8KBlCndG1H1UEzJj4gyVzDHEjt4Xi0iFUpPNNFAh266bl75rzy0TpOl7S/LJ0Es/06uv18UvSMQBGF9+3L3Ot9vUdGXOpA4UDAMDExfq/ubpoeEwyRP9KQTPMSkHTJXMM8QBt7IlKh8idlxW6+SHpLHmkKcszub3xSekghookv0JKLZDOATAG9nqYkrFvhcOWzH00OdCnW2X7dD8AAFCcmBZxrOZe6Ri6c7xId/capGPkPEM9PcfzyuY+6SAUrr5SH205L7vGHLZhSJehi4Y6XTTYMkcGYDT1eX33fbBPhQMva3hVRVO/0M0v7sv9AABAEWK6l9prL6OY7AqjKpyaSY66SDTEdlsoww18U/Mm6SC6A3yK7gBfIJ0jP/4Bx0JLpFMYakHyKPKr23XTJ50FYAz8wvTd9+UO9n3ymKtfOBwUDgAAE8xjRD1z2XVZMkSuo3cz2bG+PpPrzuXFtY9KB1Gt3Z8gn68IVlDiBG3sPV86haHO6DqEKvxmLsh+0lkAxoTps++jfS8c0tk1VO5brFvOPt8XAADYj+lFSrsNfEPzG5Ix1OmdlRQMmsnQkyVzDGK+jOO190jHUK1rDiNfwHQQyqWz5PFH6s3O5pXNWekgau6KybTfQV26+XbpLABjJOv12ffRPhcOfGPdv1U0ZXYI/eS+3hcAAFgvQ647i2+o3SAZQs3qLKOqoOmkv1Myx3Z8D7XXLRIfttW/spTpAFeJBsnvBV181vHSevlN8bwJ5NVmYj02tYVS9lvTZ9/XOxmdda6ZVpFC4QAAUPKYz7ViEmtl8Dqy5w2rR+m1V+SHbc3q9FFVxR26+UHJHAXo1fVnI3fU/0M6iCc84zv62CQdA2BMmb76KBidwsFNryJfwKxAYMMYUwAAGBO8lGOhmHQKFU0t0K82LdI5cjZRNt3Iy+dskQ6iiynTAa6VjpGHLq54HrfV/0E6iKEiqdNJqa9L5wAYY+z11UfBqBQO3N7wd/1E/ohuHj0a9wcAALbh39DG3rB0ChVOfJoc5zrpHDl9RNlm8xooHUSFk6eRo86TzpGXt3xv6EfSMQwVTX5OFw2LpXMAjINHRut5anSuOBhmWT6FwgEAoAT9k7a54vsS5Cb93q2bAckcg5i/wrG6/ycdQ0US/6WLKfs7wEx32rB8r6FaEkdQwLHnsQQwlnjfV1MaMHqFQyb9IwoEvk0YrgQAUEp6yaWm0ZhUty+8VW/2P2i1blZK5hjE3M6xUId0DHVW4nAqc+xfQYnp99SzaZ70PBAjtxpXUjcPlM4CMA7Y66OPklErHLij4SkVTa3VzWNG6z4BAEAU6/9O53jNQ5IhlOMoCncv182jJHMM8UvKPH+OdAh18h370wFTzApKdhRTu/YM9WUbedncrdJBVChWTtMON2O9p0lnARgna00ffbTubPSuOPS7k1A4AACUBubvcix0p3QMCicu1sfjpWPkbKC0O5M75qclQ3grKFVOuYMUfUAyRwFeJzdbL33FyvAK0NbEUt38hHQWgHE0qs/ho1s49Gbuogr/9whbtQMAFLsUta+7iGIh0RAqnGgkx1koGmK7NyidbuCOhhelg1BVxdX6KPuXk19WV59f5njdH6WDeFoTl+hCa450DIBxlPX65qNoVAsHXlr/vIomf6Wf6o8dzfsFAIBx9QSle2azu1B0FqtqWfNBCgTMxlyOZI4cl1z3ZF00PCYdJLeE6FelcxTgPG4LpaRDGPqcnaiLBlsKUIBxwr8yffPRvMfRHqqk8Z0oHAAAihjT97ijebNkBNWSeLMuGtbo5pskc2zHCzleu1o6hYp2f4qUr106R358gy4afiidwtBFw8d10bCMsHgLTDg86kNNR79wcJ17yKG4bpWN+n0DAMDYY5a90nDsIj9Nn7FSNw+XzLEd30XxuiuoTXYZURVOTdNFwz26+2v36yvTzyjzfFQ6huGdM4dMwTdJOgvAOOvz+uSjbNQLB47XvKKiqft0s3607xsAACaAI6uv1UdLrlzzI5Tm06SXEVUtnQdQoKJbt94smaMAT+jC4QTpyeOGmrdmCk0OJMj+VacAxsJ9pk8+2nc6BkOVyIwEXaErfBQOAACwR1Q0cQYpJyKdI+ffumho5I7aHskQ3gpKVRVmGPCRkjkK8BJxto7jdaPeWdlTqmVJgIJTzQZv75fOAiDC9MXHwNgUDn9/uoumTXtJtw4ek/sHAICSo1q7P0E+X1w6R04fZbPHc0fdP6SDUFXQrFb4P9Ix8ugj1z1eFw1/kw7iCUyN6ePnpWMACHnJ64uPgTEpHDgZ2aYiqTtJkS3vGgEAgMVUpOvt5POb8bh2jN9nauX2ut9Ix/CuwJAjvtlcfryA47W/kk5h6P7Hebr/caZ0DgAxTHeavvhY3PXYXHEwlHuzfrJD4QAAALulWhJBCvjNBNa3SGfpx9dzLHSTdArdAf4sKacYVlC6httCy6RTGLl9P74rnQNAlNcHHxtjVjhwW+3DKpp6VDePGqvvAQAAxc3bzTecMJ30o6WzeMyKQI+v+5r03moq0v1uUj4zRj8gGiQvXkPxdd+gNvm96FQ49RFdNJhx3Tbs+wEg5VHTBx+rOx+7Kw79btEf147x9wAAgGK1oPsb+vhl6Rj9+Cna1juL71+YkUzRv4JS0IxPtnyeID9C3DtHeqNAQ7Ump5JPmX0/JktnARB2y1je+dgWDj09t1MwaC4Z2jFmFQAArKEiyTpy1OXSOXJeo0y2npc0vywZon8Pi2qzh4XlqwHxv2hbXz3f2PyGdBIV6XwT+cxStTRVOguAsD6v7z2GxrRw4JuaN6lIKkGKjhvL7wMAAMVFvza8n5SyZViJS8xzeHH949JBaPqM7+vjF6Vj5NGjz1cD39j0rHQQb6nayuAduvlh6SwA4pgSpu89lt9irIcqmR9iGQoHAAAYoMKpA3W5YIaV7C+dxcN0EcdC3dIxVDRxlq6jzpbOkQfrMutUjteulQ7iqay4Rvcx6qRjAFjB9LnH2NgXDi/23EdVwWd0651j/r0AAMBq/UNxZqzUrfdIZ/Ew3Unttd+lmOww/dwKSm2iIQrBdDHHa+6WjmGoaGoBKXWudA4ASzzj9bnH2JgXDryyOaufEJeQIlvGsQIAgJQjZ1ytu3xfkI7Rj9fRpt7T2XVZMoVakHyPfjXu1C27V1BiWqGLrCuliyxDtSa/SD51vXQOAGswLTF97rH+NmN/xaGfWWpvIVm/rBwAAIwVFU3NtecdYm9yb5N+oe2VTKHmrZlCwYAZJnWQZI68mH5LG54+Q7rIMlQ0MZ18jplAPl59GADbpam/rz3mxuUfHcdqXtAvGGZzn5nj8f0AAMAuKtz9UXJ8N0jnyNlGrnuc9OReb9jWkdUrSdH7JHMUYAO5usgao51o94RqXV1FTplZdOUA6SwAFllt+trj8Y3Gr1rPuh3kc1A4AABMMOqMrkOown+PbpZLZ8k5i+N1v5cOQdNn/FAf/1s6Rh6bKZOp5cWNG6WDqFmdFVQZXKOLhsOkswBYxfSxx8n4FQ4d9b+gcOIJ3Tpi3L4nAACIUvOWT6LJlat08xDpLP34B9wWWi6dQkVSraRUWDpHHhnK8iwblqn1dhhvTdysi4aPSmcBsMwTXh+7fXzmHo1b4WDGRapoylymxk7SAAATRbByiT4eIx0j58e0sfd86RAqnPo8OXSddI68XPoqt4d+LB3DE+6+TB9nSccAsNAN4zn3aHwnFrm0XD9ZXqlbFeP6fQEAYNypSOo8UjRHOkfOk7Ql/eXxWHVkd1R09XvJKbuLrJ/Yy3GOh6xYHlZFEycTORdJ5wCwUK/Xtx5H4/rExfGaV1Q0dZtunjme3xcAAMaXLhq+pIuG70jnyHmV3Ew9L2t4VTJE/8Z3ZWYFpQMlcxTgx7R+3TlEIekc5px9khzHXLVS0lkALHSb6VuP5zcUeMfDvZ7ImU94EgAAKEkq3PU+cvx36qZPOouWJeKTOF7/F8kQ/RvfVZuN094rmSM/fpzSvbP4/oUZ6SQq0v1ucnxmfowtk+oBbML9ferxNe6FA7fVrleR1E912WD7ShIAALCHcvsSrNHNKdJZPEzf4FgoJR2Djpxh5jR8TjrGbjG9SKzquKN5s3QUNb/zIJoUTOrmwdJZAKzE9FOO1a4f728rM8aS3R+SclA4AACUEDWr00dVwdt10459CZhWcKzme9IxVCQZIaVapXPksU2fr+M4XvO0dBD9OCrTjyOzfK/lV2cABJm+tACZwmFx/X1YmhUAoMRUBs3iFzXSMXIepJ5N86VDqEjiv0k59q8myHwmx0MPSMfwVAUX6+NnpGMAWOwJry8dH58lWIcSKRy8pVkjyetIqcUS3x8AAEaXiiZP0s/p4kud5jxPvZkmXjZ3q2QI1ZI4ggLOSrJ/BaWrOBa6VTqFoSKpb5CiedI5AKzGfN14LsE6lNyT2euv3Eb7H3iFfpo4SCwDAADsM7Wgawb5/Uukc+RspSw38dL65yVD5Mbod5Etcz12heleal/3LWqzYQWlxPHkOFdI5wCwG7/s9aGFiBUOvHzOFhVNmReaC6QyAADAvlGR1Ft10WBWvrFjfx6X5nN76EHJCKplSYAmTe3UzfdI5siL6SHKuCezu3D8xzsMo1qTx5DPMVc9HOksAHZTS0xndPPuAAAgAElEQVQfWuq7y14+zXIb+dQ5hKXWAACKjgrFymnatHt181DpLB6mqzles0I6BgUOMRunfVY6Rh7PkcsN3FHbIx1EtSTeQQHHrMQVlM4CYLlt1JsZ9yVYhxItHLg99JyKJm/TTxtnSOYAAIC9MO1wM0/tY9IxclK0qedC6RAqmjibyDlLOkceW4jcem6vfU46iDr5jv1pypSEbr5VOguA/fg26WGYFkzYSl9DVHYa2bFREAAAFEBFkl8hpU6TzpHzZ0r3zOaVzVnJEKo1+UXyOd+XzFAAl5hO4Vjtw9JB+pfvnWI2CvygdBaAIpDt7zPLEi8cuK3xSRVNmUvdM6WzAABAfiqc+jw5Snx/hJxXKGOG3MhuWqYiqfeTT9m/ghLTRRyruVc6hqcyaNaht2X5XgDb3Wv6zNIh7HiCc+m75KBwAACwnWpZ8y4K+HUHWdnw+pEhys7ixXV/lQyhoqsPJhXo1q0DJHMUYLkuGr4jHcLQxWdUv+5HpHMAFA3TV7aADU/8xPGah1Qk9RNShN2kAQAspc7o2o8qAmYSqy3LaH+d2+p+KhnAW0Ep4K2g9C7JHAV4gJ5+2oq5FyqarCFH2b8pHoAtmH5i+srSMQwrCgeP636XfA4KBwAACylnkUOt1bfr5nTpLP34Zm4L/VA6BQUOaSfrdznmp4jSTZyMbJNOosLdHyLH9yPCvEaAwpk+siWsKRy4vfZ+FU2ZtbePkc4CAADDtM64jBTVScfwMP2WNmxYIB1Dv2adUwSrAr5Kaa7ljsaXpIN4e344vm7d3E86C0ARedD0kaVDDLCmcPC4dAU5tEY6BgAAbKeiiRNIOeJLneY8qz+Ol373XIUT/0OOY8sE8V0xc0BO4I66J6SDqJZEkAKO2Un7HdJZAIoK8+XSEYayq3BYXNtNrYmHSNFHpKMAAIBZYrT7w+Tz3Wya0lm0XnKpkeM1L0iGUAu6jiS/3ywjavtwm7Ol54AY3jC38AyzK3S1dBaAomJ2d2+vS1BMfHP3QVYVDuy6rCLJRfpppks6CwDARKdaV1eRr2wV2bGjL+v/53E8JDpBULUk3kwBvxluY/kKSnw9t4UWS6fwhKuv1MfjpWMAFB9eZPrG0imGsqpw8JjKKty9Tj89z5COAgAwUalZnWVUFTSrBb1TOkvOVboj/CPJAP3npOIe3ZwmmSM//l/a2PtV6RSGiibn6eMF0jkAig+vs+1qg2Fd4eBddYgmzFWHbuksAAATVmUwpo+flI7hYeqm9rUXU5vwXmGVQbOC0qdkQ+TB9CfavPnLvHK26C7ahmpNHEs+p0M6B0Bxsu9qg2Fd4eCJ1ycpnFhLGA8JADD+HDpdHz8hHSNnPW3NnMTuQtG33VQ0+TVS6nTJDAXYSG66jm+b/Zp0EBXueh/5fHfrZkA6C0ARWuv1hdvsutpgWFk4eFcdwqlF+sUrIZ0FAGDiUbYUDS9ROt3ASxtelwyhX49C5Chr1lHfha3E1MTtDX+XDuLtpO2UmddvWzYKBCguLll5tcGwsnAwOF6TxL4OAAATVoay7gnc0fCUZAjVmvwA+dQdZPcKSmbi+BkcC/1WOogKxcpp2jQzof7d0lkAitSDpg8sHWJXrC0cPOxeTMr5sXQMAAAYZ8znSm96pE7vrKRg0Kzyt79kjvz4Cm4L3S6dQjmOonD3ErJlbgxAMTJ9X4tZXThwrPYnKprULxzqWOksAAAwTpiWcCwUk4yQe+f8Xt08XDJHAe6meN0lVoyFDndfpM/cydIxAIoX32/6vtIpdsfqwsGTpW+Sj35Pdmw+BAAAY+sB2tQTkQ5Bhx9uVgP6L+kYeayljT1zbRgLrSLJWaTUZdI5AIoYe31ey1lfOHB76EEVSa3SZcNx0lkAAGBMPUPZvmZe2dwnGUJFk1/XneBTJTMU4J+U3tagz1WvdBAV7v4oOb5bCG/wAewDvtf0eaVT5GN94eDJuBdRwKmnYskLAAB7agsxNXJ740bJECqaqCVyviOZoQBv6HNVzx1N/5IOolrXHEa+wBrdnCSdBaCIZSjN35IOUYii6IhzR+0TKpJaTopsX0MbAAD2HJNLp3G85v8kQ6hw94fI8ZkVlBzJHHm4RNk5HKsTPVeGauk8gAJBs+xqlXQWgKLGtNz0daVjFKIoCgdP37ZLqbx8tm5VSEcBAIBR9W1dNNwtGUC1rq4ip8y8c76fZI68mC7QRcMa6Rjq2EV+mj7D/J1Nl84CUOR6vT5ukSiawoFvbHpWRVJxUnSedBYAABg1qyi+dhG11YgF6F9B6XCzgtJhYiEKs4xjNd+TDuE5srpNH78gHQOg6DHFTR9XOkahiqZw8DBdqQuH03TrYOkoAACwzx4j7jmF3YWya4kePu1GfbRlt+xd+QWln2uRDmGoSOpc/VpsRRaAIveS17ctIkVVOHC85hUVTi0ih66XzgIAAPuA6UVKuw18Q/MbkjFUNHWB7gSfIpmhAH+lrT3NvGR+WjqIiiTrSKlrpHMAlASXFpm+rXSMPVFUhYMn+1wHOVMX6Nb7paMAAMBeSZPLM/mG2g2SIVS0u4HIZ/u7fbpT0VfLS5pflg6iWrs/TD5v8rhPOgtACfiz16ctMkVXOHDH/LSKJs/TT2FJ6SwAALAXmM/m9tAvJSOoBcmjyO9bQXavoJSmrNvM7Y1PSgdRrcmpumjo1s03SWcBKA18nunTSqfYU0VXOBjcFkqpSOonpOi/pbMAAMAeWcyxkOi7bOrM7rdQua+LbO8EM4e5vfZ+6Rhq7orJtP9B5nxNlc4CUBKYfqKfB1PSMfZGURYOHpe/Rj71CBXzzwAAMLH8ktLPfUUygJq3fBJNrlylm++QzJEX87W6Y7FEOoZyFjnUWm2uzBwtnQWgRGS8PmyRKtpON7eH/qQiqaVY2QEAoChsoLQ7U/LSvHIcReHEUt38mFSGwnCCNvV+XTqFp7X6av062ygdA6CELDF9WOkQe6toCwdPb88lFAyeqFsHSEcBAIBdeoPS6QbuaHhRNMWC7m/o40miGfL7I/VmZ/PK5qx0EBVOnUkOFe07owAW2kw9PQulQ+yLoi4c+KbmTSqauITIuU46CwAAjMgl1z1ZFw2PSYZQ0WQTOepyyQwFeIHSbh0vrX9dOoiKdn+BHF9MOgdAaXEvMX1X6RT7oqgLB8/6h9ppevXpuvUh6SgAADAM86Ucr10tGUFFUv9BSt1Gdq+g1EuUaeSO+n9IB1ELuo4kv/9u3QxIZwEoIY96fVaqlc6xT4q+cOD7F2ZUOBXRLwe/0r9U0nkAAGDQ3dRedznF5DaGVi2r3kaBcrMi0GSxEPmx/n8et9X/QTqIOr2zkoJBs+wqhgADjB4ml6KmzyodZF8VfeFgcLzmARVNrtBPeSdLZwEAAM//0Wsvn8auy1IBhqyg9HapDAVhWsSx0I+kY3jnK1hprg5Nk84CUFp4BcdDD0inGA0lUTh4WJ1PiuoJ75IAAEjbSLStkZfP2SIVoH8Fpe6bdPM/pTIUhOlOaq+9TPKqjOGdr9bEMv06+nHRIAClZ7PXRy0RJVM4cKzmBRVJLiSlfiidBQBgAusjl5o53vSMaIpw90W6OzxbNEM+TL+nnk3zJK/KDAonLtXHE6VjAJQc5oUcC70gHWO0lEzh4Hl8XZymV88jTJQGAJDBHJG+JK8iyWZS6jLJDAV4hvqyjbxs7lbpICqcmkMOXSydA6AE/dHrm1JIOseoKanCAROlAQAEMcWkdztW0cTRpJzlZPdrwOvkZuv5xrp/SwdRkcR/keOYTfFsPl8AxYiJ3XApTIgeqqQKB6N/onTKvHCdKZ0FAGAC+Tk9vvZcohqxALkVlNboZlAsRH5ZInc2x+v+KB1Etax5FwUC9+pmuXQWgBK0hGO1v5YOMdpKrnDwbElfQJMDZqL0W6WjAACUPn6KKD1L8p01NauzgqqCpmg4VCpDgc7jttqEdAgVTh2oiwaTo1I6C0Dp4X/RlswF0inGQkkWDrys4VX9pHg2OXSXdBYAgBL3un7WbeC2xpekAvSvoJRYppvVUhkKwzdwW0h8AQ/VsiRAgUM6desI6SwAJYnpbNMXlY4xFkqycDA4XnO3iqbMpj/10lkAAEqUS8wncax2vWiKcMJM7P2yaIZ8mH5Gmeej0jE8/qmL9fFY6RgAJaqLY6FO6RBjpWQLBw9nIqT8n9Wt/aSjAACUoIv1C2S3ZAAVTs0khy6VzFCAJ3ThcAJ3zE9LB1GR5Pmk1OnSOQBK1Ote37OElXThwLH6f+oXlYv0i8r10lkAAErMjyheexW1yW1cphZ0zSC//xaye0Wgl4izdRyve0U6iIomm3TRcJV0DoCS5dJFHK//p3SMsVTShYNn8do4hatPItt3DwUAKBZMD9GmHtGNy1RrcqouGlaT3Sso9ZHrHq+Lhr9JB8kVWSt005HOAlCi/uD1OeNyK8uNh5IvHNhd6Kpo4nT9XPkQYck5AIB99QL1bWvklc29UgH6V1CqMEXDVKkMheEFHK/9lXQKFel6O/l9Zs6fzUUWQDHbRuSebvqc0kHGWskXDga31a5XkdSlpAiXaAEA9p5+ceTj+MamZ6UC5FZQMhu8zZDKUBi+httCy6RTqDO69qMKv5mH8jbpLAAli+lS8UUixsmEKBw8j6/9Hk2vbtKtY6SjAAAUJde8gx76nWiG1u6F+jhTNENevIbi675BbSHRFGpWp48qg3fq5lGiQQBK24O0qeca6RDjZcIUDmZjIhVJnUqKHta/nCSdBwCgyPxQFw03SwZQkeQsUuoSyQwF+D/i3jlWDFmoDH5fv+bJVi8ApW0rMZ3KK5uz0kHGy4QpHAyO1fxZRZP6RUddLZ0FAKB48E9p/bqvE8lN+lORRDUpxxQuFq+gxP8iztZzrPkN6SQqkmrVZ+or0jkAShtfwrHQn6VTjKcJVTh4Nvb+gKqCZsjSx6SjAAAUgb+Sq2aZq7ZSAdSZqw6l8rI1ulkhlaEAPcTcYJYBlw6ii4Yv6aLhOukcACXud16fcoKZcIWDuZykwl2nkeN/hOx+EQIAkLaZmBo4XiO2B4FqSQSpvNwUDTZP7mVy6VSO166VDqJakx8gn1pJE/D1HWAc9ZKbOW0iDVEaMCGfWDhe/xcVSV1EiiZcpQgAUCD9gsizJS/DD1lB6WipDAVhuvj/s3cvAFKVdf/Af78zM7vsoojorhcsFcvX1Or1FcrMvKB52Rugq2sqoSi67MykZpZliWiapeZlZ5dVEEVxFV0FdmfGMjUz38rA3jK1/lZ4RwWvqCywu+f3f55hUFBg9jJzfjNzvp86M2cR9vmyzJzz/OY853lMcXWvdgxzXtvZFA1xsztCOwtAkfuR7Utqh9Dgy8IhpbXmemqKV5ni4SjtKAAAeUfkR6ZoSKpmCHddZh7rVTNkIjTfnE+upJjuvdDr17Yot2tb7K4aBKDYCT1k3vM3ULP+/AcafFs42BVPuSlxOgXoKXPIHaWdBwAgb5jOsCkaVCeR4HD8FHKcizUzZCT0B3p+2VmaK2hb66/MdN1mdr+qmQOg+MnbqWGJyu95Tb4tHCxprX6VI4lziEn9EjMAQJ74M61eOU0zAEc7v0pO8BbK5xmUhF4gd90kSUTWakehcPyn5vEk7RgARU/oHNt31I6hydeFgyWx6g6OJm4156cztLMAAChbTt29k2TulDVaATjS+RniwELK7/V2VpErtdI6cYV2EI4mp5inH2nnACh+cqvtM2qn0Ob7wiGlu+9cKgscag7Be2lHAQBQNEfm1C3XapynzB9OI7ZfbPbyeQalPnLdk6W15mntIByOH0aOc7N2DoDiJ/9J9RUBhYNlTpTvczQx2ew+RviZAIBfuaJ3pcGZ6VDTuNvN7gFaGfrFpfOlpeYB7RgcXbQ3OaH7zW6JdhaAImfXsJls+4raQfIBOslp0lz9R44kriDmGdpZAABUMKsVDhQed7l5PF6t/X6RFmmpbtZOwdM6RtGw8i6zi4k9AHJN5AqJVf9RO0a+QOGwsZXdl1Nl2RHmsHyodhQAAM8xqRQOHE2cah5/qNF2vwk9SM8uPY+oWjUGN3SUUEW5vdKwt2oQAF+Qx1J9Q/gICoeNpFaVbkqcQgGyq0pXaOcBAPCWeD5DkCkavmYe51A+z6BE8iz1dp8kj8zo1U5CleX2nobDtGMA+MBK6qNT/Lg69NagcPiE1BSt4fgUcpwE5fWJDAAgyzy+x4Eb45+lkJPfMygJvUnCtdJW/552FI4m7exJU7RzAPiAkOtOkdYaX0+9ujkoHDbD3vjG0cQ15jB9oXYWAADPsONZ4cCRjm0oVL7Y7O7kVZuDsNZ0H46Xlqpl2kE4Gj+JyPmpdg4Af5Br8mEShHyEwmFLepZfTMHR3yCmg7SjAAB4gr254pCaQSk8dr7Z/W8v2huCc0zR8HvtEKkF8Sh4G+EqOEDuCf2Jepfn96r1ilA4bIG0Tevh6MKTiUrt/Q7ba+cBAPCAN/c4NI29wvSBJ3jS1qDJz6S5ep52CnMe2t2chxaZ3TLtLAA+8A7x2pNtH1A7SL5C4bAV0jzpRQ7Hp5Lj2Bks8EkPABS3PjfnVxw4Gp9M7FyU63aGROh+al36Y2pWnkFpcvsI2m5k3Jx9dlYNAuAP9r6GqdIy6UXtIPkMhUMG0lKziCPJa82B+3vaWQAAcooDOS0czLH0YFM0zM5lG0Mm9CT1upPFneFqxuDxM4O037gFZnd/zRwAviF0re3zacfIdygc+uPZJT80B/CxZu9w7SgAADnj5O6KQ2rIDZfaGZRKc9VGFrxKrkyQtprV2kFo37E3mMdjtWMA+MSjqb4eVWnnyHsoHPrBzt3NTYsaKFDypPlyN+08AAA5IblZx4HP6tyWyko7zW5lLr5/lnxILk2wU3JrB+FI4lxibtLOAeATr1Dfuoa8WKelAKBw6CdpnbiCw10nkhP4nfmyRDsPAEDWrevN+hWH9TMojbMzKH0p2987i1wS+ra0VD2pHYTDyWpy+FrtHAA+sY7cvhNtH087SKFA4TAA0lL7J44mzzO7rdpZAACyzgllf6hS07ifmce6rH/fbBK6WGJV92vH4OmJL1OQ7zK7Ae0sAD5xnu3baYcoJCgcBkiaq2ZxJHkQMX1bOwsAQFYF12S1cDDHytPNsfL72fyeOTDPFA1XaYfgxoW7UKi0y+xuq50FwBeEbjfv/VnaMQoNCofBWLm6kSrLvmgO9QdoRwEAyJred7J2jwNH4ocQO23Z+n458ntatuwc7RDcGC+nUIm9B+Qz2lkA/EH+j1Z2N2qnKEQoHAZBFtR3c9Pi4ykQ+rP5skI7DwBAFvRla9Ejc3zcwxwf76P8nkFpGfW4x0si4s2id1uw0T0gYzVzAPjISurrPd725bSDFCIUDoMkrRNe4GhXPVHgN4SbpQGg8GVlmFJ60TI75CafZ1B6j4RqpK3mTe0gFB5rh0lN0o4B4BPriPrqbR9OO0ihQuEwBNJc+xiHk1Fy6CbtLAAAQzP0qVi5oSNAldvdSfm9aFmv6TicKLHaf2gH4UjyTGK+UDsHgG+4FJWW2se0YxQyFA5DJC1VN3M08SU7iZ52FgCAweOhX3GoKP+5eawZepac+o401/5GOwQ3xcdTwMGNmQCekRZpqb5ZO0WhQ+GQDc8sPY/2G/sFcyoYrx0FAGCQhlQ4cDhxBjl8QbbC5IbcKM3V6p11bozvQyGnw+yGtLMA+IM8kuqrUbV2kIKHwiELUitLRxedZM4BT5hTwl7aeQAABk4GXThwtOtQcgJ5PoOSPEArur+rnYLP7Kig8rK42d1eOwuAP8h/iHpOwsrQ2YHCIUukeeJbHI1PMKeFPxLm4QaAwjOoexw4nBxDHLiPOI8niRB6mt5772RZcEqfZgyujpXSmDF2oTl8wATgjffNAWCC7aNpBykWKByySJprnuFwvIEcx87HjZ8tABSQgd/jkJpBaeRIe7zbMQeBsmUFuT21cscpqzRDsOMwNcXnmN1DNHMA+EgvuW6DtNQ8ox2kmKBzm2XmBfoARxJRYlYfRwsAMAADKhzSMyjdbXb3y1GebFhDQpPyYurFcPwn5vE07RgAviEStX0y7RjFBoVDDkisuo0jyc8RU57fKAgAsMEA73GoKLvalA/H5ShMNoj5/1nmePwH7SDmfPAtcz64VDsHgG8IXWv7YtoxihEKh1xpXfJ9ahq3pzlZHK8dBQAgI+F+3+PA0fhZxM75uYwzdHKFNFffqZ3CFA0Hm/PAXLurnQXAF4TuT/XBYlXaSYoSCoccEXeGy43xyRRyRpsvv6qdBwBgq7h/Q5U4HD+MHKcl13GG6F5qqb2Eml3VEKkbxx1aZHaHqQYB8I8nqNedbPtg2kGKFQqHHJK2mtXctKiOAiV/Ml/uqZ0HAGCLJPNQJW5cvBeFQveZ3fydQYloCa1YPUVcVzRD8NTFI2l4sMvsVWjmAPCR56lvXZ20TVytHaSYoXDIMWmduIIjyWpi+l/CvN0AkK9469OxcmPHdhQqszMo7eBRosF4mXrWTpAF9d2aIbhxdoiG73qP2dtXMweAj7xDQtW2z6UdpNihcPCAxKr+wZF4HbHzoPmyTDsPAMCnyJanY10/g1LZXXneEf7AdBzqpG3Sa9pBKDQ6Zh6/qR0DwCe6Sdw6idX8QzuIH6Bw8Ih5QT/O0a5vEQU6CD93AMg3W7vHoaL8WvOYzzMouUR9p0ms9q/aQTiauMA8nq2dA8Anes17/1vmvf+4dhC/QAfWQ9Jcu5gjyUZzgp5NmGEDAPLJFu5x4Gj8HGLnXK/jDIjQD0zHYbF2DA7HJ5Lj/EI7B4BPiPlfYz689/0EhYPHJFZ1C0eTO5ndK7SzAAB8RD59jwNHkkeYoqFZI84AzDXH1Wu0Q3A4eaApGuabXUc7C4BP/Nj2qbRD+A0KBwXSXHWlKR52NrtR7SwAACm86T0OHOn6HHHgXrMbUkrUH4/SitXTtUNwU2I0Bdh+6jlcOwuATzTbvpR2CD9C4aClZcl5FB5np+k7WTsKAMDG9zisn0o01EX5PYPSv4nW1cuC+nWaITjSsQ0FyuzParRmDgAfuTvVh2rGAm8aUDgoSS0Q19AxhSrKR5kT9tHaeQDA59z19zjw+JlB2nfcArO7j3KirXnHFA3V0jzxLc0QqdmmKsrbze4BmjkAfEPoQVpp12nBAm9aUDgosp+U8ZT5x9OIUb8yXx6inQcA/EzW3+Ow37hfmsd8/jCjh/rcemmd+Jx2EKoou5qYarVjAPjE4/T+28fLgtNUrzL6HQoHZTLvtA95cns1jdzuYSIeq50HAHyKnTUcSTQSc37feyUSltaaR7RjcDQ53fysztfOAeAPspTefa9a7jjtQ+0kfofCIQ/IHaes4uiiY4lKfmu+/KJ2HgDwIZavm4fvaMfYKpHrJFY9WzsGR7u+SRS4UTsHgE/8najnWNtX0g4CKBzyhh2ry5Hk0cT0O/Pl3tp5AMBvUp+e5/H6MhKnld0XaqfgaHw/UzTY2aZw/gTIvedI6GiJ6d7PBB/DgS+PSKzqdW6Mf5NCzmPmy9218wCAr+Rx0UBPUXffKbKgvk8zBDctqiSnJG5+Uttp5gDwiRepx/2mtNW8rh0EPobCIc+YN8hLHOk6itgWD7yLdh4AAGWvm85Drcype18zBE+dN4zKKxabomEPzRwA/iCvkbhHSVvtS9pJYFMoHPKQxGr/zZHkkeYEZW8A3Fk7DwCAkjXk9k3S7jyw4zA1xW8zx+SDNHMA+MTrJHyk7QtpB4FPQ+GQpyRW9Q+e3nkkBYO2eNhJOw8AgMfE/P8Maan9k3YQCnddZh4btGMA+MAb1Nt7pMyq+4d2ENg8FA55zLxxnjXFw3gUDwDgO0IzJVZ9t3YMjsYnEzkXa+cA8AFbNIy3fR/tILBlKBzyXKp4iMaPNCeuhwnFAwD4w93UWnMZxXQXh+Vw8hvkOHb613y+cRygGLxB5B6JoiH/oXAoANJc80y6eLBXHiq18wAA5IzQn2j1yjPEdUUzBke6PkdOYKHZLdXMAeADK1JFg+nraAeBzFA4FIhU8dCUOJICbIuHCu08AAA58CKt65soc6es0QzB0zpGUWl53OzuoJkDwAdWUp8cKa0oGgoFCocCIq3VT5viYbwpHh4iDFsCgOLyPrl9dXJz7RuaIbhxdoiG7WoXePsvzRwAPvCGKRqOsn0b7SDQfygcCkyqeIguOpSoxBYPn9HOAwCQBX1E7inSUvuUdhAKjW4zj+O1YwAUuZeJ1pmiYeJz2kFgYFA4FCBpnvgcnxM/jEocWzyM0c4DADAkQhdKrCauHYMjyYuIaap2DoAit4zWuUfJTROf1w4CA4fCoUDJTTXPc1Pi0PSwpX208wAADNLNEqu6TjsEh+MnkONcoZ0DoMj9MzU86aaaV7WDwOCgcChg0lr9KjctOowCJQ+aL7+snQcAYGDkEepZHtFOwZH4OFM03G52He0sAEXsb9S37mhpnbhCOwgMHgqHAmffgBxOHmFOdw+YL7+qnQcAoF+E/h8J10vbtB7NGNwY/yyFnE6zW66ZA6DIPUEuHWf6LO9oB4GhQeFQBKSl6h0+q/ObVBa0J7/DtfMAAGTwFlFfjbTUqnYizHFzW3Pc7DK7O2vmAChyj1J3b53MqXtfOwgMHQqHImHfkDx13nE0fMe7zelwgnYeAIAtWEeue4IpGv6tGYIbOgJUWW6Ol/QlzRwARW4hfbjyFO21WSB7UDgUEfvGNCfDE6iyrM1+lqadBwDg02S6tNT8TjuFKRrsDdlV2jEAipfMoRXdjbJgSp92EsgeFA5FRhbU97HjnE3huL356EfaeQAAPiZXS3P1XO0UHElEiDmqnQOgiF1JLbU/FtcV7SCQXSgcilD6jXqxOTmuMCfHXxJmCgEAdbKYWpZeRM3Vqik4mqgyx8XrVUMAFC+XRL4rseobqNnVzgI5gMKhiNk3LkeSpnig28yXJSqs71MAACAASURBVNp5AMC3/krSfZq4M1R7Ehzu+hI5AXtfQ0AzB0CRWkdCp5u+x13aQSB3UDgUOYlV3WWKh3dM8XCv+XIb7TwA4DfyGklfncTqP9BMYY6DO5uiwc6gtK1mDoAi9YEpGk40fY5faQeB3ELh4AP2jczR+GFEjj1p7qqdBwB8o5tEJkis7mXNENwYL6eQs9jsflYzB0CRWk7k1kqs5i/aQSD3UDj4hDTX/MWcPL9GQSdBTPtr5wGAoifk0hRpqVmiGYKdmQ6Fx9pVob+imQOgKAk9Tb1utbTVvKQdBbyBwsFH7BubGzsOoVD5febLI7XzAEAxk0ukpfpe7RTUNPYKUz6coB0DoAg9TL2rT5C2+ve0g4B3UDj4jH2Dc+Ps4yi0603mZHqGdh4AKEJC86m19grtWVU4mphKzBephgAoSnIr9Sw/R9qm9WgnAW+hcPAh+0ZnxzmTwvEXzJeXmo11EwFA0RD6Az2/7Czt+du5KXE4BXiWZgaAImTf15dSS+3l2u9x0IHCwafSb/jLOBp/nsiZbfZLtTMBQIETeoHcdZMkEVmrGYOji/amQMgOycQ01ADZY97X7jRprrlD+2oi6EHh4HP2AMARUzywY0+yldp5AKBgrSJXaqV14grNEKZo2MHUCwmzO0ozB0CRWUHiniCxmse1g4AuFA5A9kDA0YVfISq10xV+WTsPABScPnLdk6W15mnNEFwdK6UxYxaa3c9p5gAoMn8jWjtBYpNe1A4C+lA4QIo0T3qRIx2HEJXfQUwTtfMAQAFx6XxpqXlAMwI7DlO4yw67/IZmDoCiIrSIaPVk7QUcIX+gcICP2AODOfkeT+H4pebLnxBumgaAzGZJS1WzdghTNFxsDlmTtWMAFAl7H+Tl1FpzKW6Cho2hcIBNpA8QMziSeJaYbzX7ZdqZACBPCT1Izy75DlGVagxzvGowx6vLVEMAFA+74vsZEqtegJug4ZNQOMBm2QMGT+/8DwWDdrzwbtp5ACDfyLPU232SPDKjVzMFh7sOIidgP+TAFVKAoXuFensnyay6pdpBID+hcIAtsgcOPrtrLJUEFphT8mHaeQAgTwi9ScK12ivGctPiPSgQspM64MoowFAJ/Y7W9TXIzXVvaEeB/IXCAbZKbq59g8fPPIr2G/tzc5r+rnYeAFC31nQwjpeWqmWaIbixYzsKlccJ00gDZIH8kp5d+gPtK4iQ/1A4QEbpA8kFHI4/SU5qsbhy7UwAoOYcUzT8XjMAj58ZpP3GLTC7+2nmACgCq8l1p0lLTTtRtXYWKAAoHKDf7IGFw11Pm+LhfnPq3ks7DwB4TOQqiVXP045hioYbzeMx2jEACpv8xxQNx0tL7VPaSaBwoHCAAbEHGA4nx5Ejd5ri4TjtPADgEaH7qXXpxRTT/VSSI8nziWm6agiAgicPkMunmnP6O9pJoLCgcIABk5aqd9iZWUNN435iTuB2vYeAdiYAyCGhJ+n9t78t7gzVuRk5kqgl5qs1MwAUuD7zfr6cWpderv1+hsKEwgEGJX3AmclN8d9TwLnT7O+snQkAcuJVcmWCzDvtQ80Q3NR1AAUC7YQPKgAG63Xqc0+V1ppHKKa79goULhQOMCT2AMSR5AHEqaFL47XzAEBWfUguTZDW6lc1Q3BTYrQpGrrM7jaaOQAKlzxCwrZoeF07CRQ2FA4wZBKrep0bOo6mirKfEPOPCZ8IAhQDl4S+LS1VT2qG4Cnzh9O2o+xaDaM1cwAUqD4S+Smt7L5cFtT3aYeBwofCAbIifUC6lKOJ35tT/XzC0CWAwiZ0scSq7teMwM5Mh5rGzSemAzVzABSo180b+TSJVT+sHQSKBwoHyCpprn54/dAlssXDkdp5AGAwpN10Nq7STmGKhl+YY8lE7RgABehhU/zbogFDkyCrUDhA1qWGLjkzjzYn/e+bk/5l5pdC2pkAYABcekg7AoeTZ5NDF2jnACgwPaZguIRal/wCsyZBLqBwgJxIH7Cu4kj8YeLUrEuf184EAIWBo13fJCcQ084BUGD+ZU6+p0qsZglmTYJcQeEAOWUPYDxl/gE0YvvrTXfgLO08AJDfOJL8AnHgHsKVSoABkDm06p3ztKdNhuKHwgFyLn0gm8aRxK+J+Wazv712JgDIP3xmRwWVl8fN7kjtLAAF4h0SOVti1R3aQcAfUDiAZ+yBjSOdT5iX3R3EdJh2HgDIHzx13jAqr1hkdsdoZwEoCEK/I+qdLLG6l7WjgH+gcABP2QMcOzPHU9O475ri4XLzS8O0MwGALnYcpqb4XHNMOFg7C0ABWGOKhp9Q65Jf4gZo8BoKB/Bc+kB3DU/vTFIwMM90G8ZqZwIARU1dM0zR8C3tGAD5T5ZSb98UmVX3LG6ABg0oHECNPfBx4+yDKbjrxcT8I8LNkAC+w+HkaeTwJdo5APJcD4lcSb3Lr5C2aT3aYcC/UDiAqvQB8FKOxjtJnHnEtL92JgDwBjd1fZ0CgTl2VzsLQN4SeprYnSKxmr9oRwFA4QB5QZpr/sLVsbG055jLTBfCLvoU0M4EALnDjYv3olBoodkt1c4CkKf6TNFwLT2/7BJJRNZqhwGwUDhA3kgfGH/A4a6F5KQ+hdxPOxMAZB+Hk9ubosFOu1qhnQUgTz1Dbt9Z0lL7J+0gABtD4QB5xx4ouTp2II0ZY+97uMhsJdqZACA7uHF2iEKj7zW7+2hnAchD68x2FS1bdiWuMkA+QuEAeSl9wJzB4a77yHFuwcxLAEUiOHqWeTxSOwZAHlqSvsrwlHYQgC1B4QB5zR5AuaHjIKooP5+YZppfKtfOBACDw9HEhcR8pnYOgDyzmoRm0MrV18mC+j7tMABbg8IB8l76QHoNNy5eSKHQbLN/hHYmABgYUzRMMo9XaecAyDO/pZ6eadI24T/aQQD6A4UDFAx7YGXHOZLCXWeQ8M+JaUftTACQGYeTB5LDd5hdRzsLQF4QepNYfkAttbeK64p2HID+QuEABSV9gJ3LjfFOCjk/N/tnEOaAB8hbHOn8DDnBTrM7XDsLQB6w57Bbqdf9gbTVvEnNrnYegAFB4QAFKXXAJTqTw8nbyCF7syWmbgXIM3xW57ZUFuwyu7tqZwHIA8+QS9Olper32kEABguFAxQ0ewDmxtkHUHDX84n5EsKnmgB5gRs6AlRRfqfZ/bJ2FgBlH5LIZdS7/Dppm9ajHQZgKFA4QMFLH4h/wdGFC4hKbzT7ddqZAHyvovxaYqrVjgGgrJNo7XckNulF7SAA2YDCAYqGNKcOzBM4mqgi4uvM/t7amQD8iCPJJlM0nKudA0DRc+asdL40Vye1gwBkEwoHKDr2QM0NHQ9RRdl5xHyx+aUR2pkA/MIUDceaouEG7RwASlaRyBW0svt6WVC/TjsMQLahcICilD5g/8J0Ym43X/3MFBBTCLMvAeQUNyX2pwAvIJxbwH/EFAzzzLvghxKrfl07DECu4OAORU1iVfYAfgZHO9vMy93e//AV7UwAxcgU6TuboiFOuMIH/vNnot7vSKzuCe0gALmGwgF8QZrrnmDHOYjC8W+nrkAQ76KdCaBYcENHGVWULzS7u2tnAfCOvGavMFBLze1YxA38AoUD+Eb6wD6Pp8zvoBGjLjD7F5ptG+VYAAXNFORM4a7bzO5B2lkAPPKB2a6mVe9cK/NO+xCLuIGfoHAA30kd6Iku40jyZmKaafanEt4LAIMTjv/UPJ6kHQPAA71mm0tCM9LDYAF8B50l8K30gf8cU0BcbwqIqwjrPwAMCEeTdtKBH2nnAPBApykYLjLnjX9oBwHQhMIBfC99IphgCogjyF5+ZjpQOxNAvuNw/DBynJu1cwDklNCT5vFCc574rXYUgHyAwgEgzZ4Y2HHGUbirwXSL7BAmLCAHsBk8PfF5Cjr3md0S7SwAOWIXcJtBrbULcOMzwMdQOABsJH2CuJvHz+yg/cZ+23SRLiHMFAPwEZ7WMYqGldtpV3fQzgKQAy+aM8Fl9MzS2+WRGb248RlgUygcADYjdcIgmsvVsTtpzB7nEDl2HPdO2rkANHFDRwlVltsrDbgaB8XmDSL3Slr2wk2SiKwlqtbOA5CXUDgAbMX6EwjdyFPm30IjRp1r9r9ntu2VYwHoqCi7yTwerh0DIIveMds1tOrtG9Iz7gHAVqBwAOiH9AnlSg4nZxHLBcQcJayQCz7C4cQPyeHTtXMAZMkqEmkm4Wulpeod7TAAhQKFA8AApE8wPzYFxLWmgDjXFBD2KsRI7VwAuWRe7yeaouEK7RwAWfCuKRhuMAXDDdJSjYIBYIBQOAAMQrqAuJSnLr6ehoe+Y37FFBA8SjsXQLZxU+IrFOB5dlc7C8DgydvmJXwDfdhzo8yd8K52GoBChcIBYAjSJ6DLeHL79TRyO1NA8HmE2WagSHB04e4UKF1sdsu0swAMitCbpuS9jt59LyZ3nLJKOw5AoUPhAJAF6RPSTznScT1xedjs2wJiZ+VYAINmiuERNHJkF+F1DIXpdbNdT7S6RZrrP9AOA1AsUDgAZJHEUieon/PUeTdQWcW3yaELCFNXQqFxJGCKhgVm74vaUQAG6Dly6VrqXnm7zJ2yRjsMQLFB4QCQA+kT1s3szJxDTWOPJ+bvm6/HaecC6BdxLiamPbRjAAzAEhL5BbUuvV/cGVi1DSBHUDgA5FD6BNZhN25KHE4B/oHZP4ZwoynkMxQNUBjEbL+mPvm5tFY/mvqVGBZuA8glFA4AHkmf2B7lcNeXyAl81+yfbLZS3VQAAAXHLsx5N7l9v5SW2qe0wwD4CQoHAI+lT3SncyR5kfmqkZgbzdc7aecCAMhzb5BIGxG3Sazqde0wAH6EwgFASfrEdylXx35Ge475FnFqJqYva+cCAMgzfyWhG+j5ZXdJIrJWOwyAn6FwAFCWPhHeZrfUfRAOn2uKiDrztaObDABAjWuKhU5y5YaP7l8AAHUoHADyyEf3QTQu3ouCoUZTQJxBWFAOAPzjLVMw3Eq9PW3SNuE/2mEAYFMoHADyUPqEeSFPnfcTKquoNwXEdLMdrJ0LACAnhP5gtlnUvbID6y8A5C8UDgB5LH0CnW83np74MgXYXoU41Xy9rXI0AIChet8UC3dSn7TJrOq/aYcBgMxQOAAUiPSJdTqf1fl9GhacbAqIc8zXX9LOBQAwQE+ZguEmWtN7h8ype187DAD0HwoHgAKTPtG22o2nd46lQOAMYj7FfD1SORoAwJa8SyLt1Nd3q8yqW6odBgAGB4UDQAFLn4CX8tR5F1DZDscTO6aIoPGEGZkAQJ+dGekREvdW6n7rfty7AFD4UDgAFIH0CbndbtwY/yyFnNPNvt321MwFAL70PNkppnvc26St5iXtMACQPSgcAIpM+kR9GTvO5TS981ByHDuM6USzba8cDQCK1ztmu5dct51m1T0mrivagQAg+1A4ABSp9In7d3bj6th3aI89jiOHv0XEtebXypTjAUDh6zZHmi5y5S564YUHPlrVucVVjgUAuYLCAcAH0if0RXbjxo7tKFg+yex/i5iONM8B3XQAUED6SOhh83wX9a5eKG3172kHAgDvoHAA8Jn0if42u3Hjwl0oUFpPjtQT8SGEm6oB4NNcc+R4nFzuoL61HdI26TXtQACgA4UDgI+lOwDNdksVEcHSScRygikiDiNciQDwsz5zhPgdCd9HvWsXolgAAAuFAwCkpDsG69eHOLtrJyoJnJAuIg4lHCsA/KDXHAkeSxUL6/ruk5tr39AOBAD5BZ0BAPiUdIdhfRFxZkcFlZfVms5ELTEdbX6tXDkeAGTPahJ6kFi6aHV3l9xSv1I7EADkLxQOALBV6Y7EXLtxQ0cZVQ47ksixMzPVmG1X3XQAMAjLzRYncrtoxZqHZUF9t3YgACgMKBwAoN/SHYy43diZ6VDj2LEUIFNEcJ35tS8pxwOALXvKvIM7qY+6qG3pUnFnYM5UABgwFA4AMCjpjsef09tPONL5GWLnGCK70VFmG6kaEMDf3jXbQ0Tur82b9dcSq3v5o//SWq2XCgAKGgoHAMiKdMdkjt14/Mwg7TvuK+ZXjybiY4hpHGGWJoBcsusrLDHvuV+b99yD9OySP8sjM3q1QwFAcUHhAABZl+6w/CG9XcrRRTsQhb5p9o8m4SNMIbGHakCAYiD0ArH81uw9SNTzG4lNfOvj/1ilFgsAihcKBwDIOWlOdWjuTm/ETYv3ICd0uNm1RcR487ybYjyAQvGKKRYeMc+/JbfnUWmd8IJ2IADwFxQOAOC5dIfntvRGHOn6HDEfbvaOIFtMEO+iFg4gb4hdW+W35vm3JPKoxGr/rZ0IAPwNhQMAqEt3iOxm75EgDifHEMshZu9rxHSw+aX9zeZoZgTIMTvZwNMkdnif/JGEH5eW6mXaoQAANobCAQDyjrRU2Q6T3W63X/Pk9hG03YiDiJ2vm47VwaaY+Kr55W1VQwIMzfvmtfyEeS3/gcT9X3pv1Z/kjlNWaYcCANgaFA4AkPfSHaoH0xtxQ0eAdizdjxxnrOl8HUjMY2n9OhLDNHMCbMEasusoiCw1hcKT5LpL6c21z8iC+j7tYAAAA4HCAQAKTrrD9VR6s6ta22KihCqH7U+uKSYcU0wQ2WLCDnEq0UsKPrSO7JAjoqXkmiLBMUXCijVPm9fsOu1gAABDhcIBAIpCumP2l/SWwtWxUtpzzBfMf/2S+eqLZK9KcOrKxM5aOaGovE6yoYCVv5vX2FP0/LJ/SCKyVjsYAEAuoHAAgKKV7sD9Nb19hJsWVRKXfIkcU1AIfdEUE/ubX/0vwn0TsHnvm1fT/zOvlafNa+Xv5JoCQdY9Ja0TV2gHAwDwEgoHAPCddIfvofSWwo7DdNZ9oylUug+x7JMuJMy+2YhG29+iFBe8IWZ71Tz+0zz/c32hwP+knrX/pDknvCquK9oBAQC0oXAAADDSHcNX0ttDG/83PqtzWyoN7k2OuxeJM8b80u5mG2NKCbv/WcJ9FIXCDmd7yRQHG2btepHYXUau8x9a2/uczKl7f7N/6mbXy4wAAHkLhQMAQAbpDuWT6W0T7Mx06OwDdyOHx5htD1NM7El2JWxJrYa9K7Hsan7XKI8j+5S8TcLLzc5y8++wvggUep5cecFsy+jmJ18RdwaqAACAQULhAAAwBOmO6EvpbbN4yvzhNGKb0dQXtAXGbsRmI9nJ/JdK82w23tH8NvNM9hnH5U31mu1Ns60wPyvzzPbZbPwGibxiCoJXKND7Cq364FWZd9qHW/1ObTWeBAYAKFY4QQEA5Fi6Q/tcetui9NWLUcRuJQVNMSFOJbHsQMLbEdO25nmk+W0jUhuT3V//taS+3sbsl1L+3Ythh4CtNY8fmGR2PQ67vWu+fje9v8r8He3X75vn98zf8S3z919BvaZIEGcF3fzk27hKAACQH1A4AADkiXQH+c30NmCphfEqqIx6h9mF8MpTW9AZRtJnNi6ngPlanBLTMQ/aMoVccYg5aDr0QXLts/na/nrqv9tATq9NZf6sS470ms692cyzY75O/br57+yuoz5abf6s2QJrqNe1i52tTm3BNWtoJXUPaaEzXCUAAMgbKBwAAIpEuoP+QXoDAADIKhQOAAAAAACQEQoHAAAAAADICIUDAAAAAABkhMIBAAAAAAAyQuEAAAAAAAAZoXAAAAAAAICMUDgAAAAAAEBGKBwAAAAAACAjFA4AAAAAAJARCgcAAAAAAMgIhQMAAAAAAGSEwgEAAAAAADJC4QAAAAAAABmhcAAAAAAAgIxQOAAAAAAAQEYoHAAAAAAAICMUDgAAAAAAkBEKBwAAAAAAyAiFAwAAAAAAZITCAQAAAAAAMkLhAAAAAAAAGaFwAAAAAACAjFA4AAAAAABARigcAAAAAAAgIxQOAAAAAACQEQoHAAAAAADICIUDAAAAAABkhMIBAAAAAAAyQuEAAAAAAAAZoXAAAAAAAICMUDgAAAAAAEBGKBwAAAAAACAjFA4AAAAAAJARCgcAAAAAAMgIhQMAAAAAAGSEwgEAAAAAADJC4QAAAAAAABmhcAAAAAAAgIxQOAAAAAAAQEYoHAAAAAAAICMUDgAAAAAAkBEKBwAAAAAAyAiFAwAAAAAAZITCAQAAAAAAMkLhAAAAAAAAGaFwAAAAAACAjFA4AAAAAABARigcAAAAAAAgIxQOAAAAAACQEQoHAAAAAADICIUDAAAAAABkhMIBAAAAAAAyQuEAAAAAAAAZoXAAAAAAAICMUDgAAAAAAEBGKBwAAAAAACAjFA4AAAAAAJARCgcAAAAAAMgIhQMAAAAAAGSEwgEAAAAAADJC4QAAAAAAABmhcAAAAAAAgIxQOAAAAAAAQEYoHAAAAAAAICMUDgAAAAAAkBEKBwAAAAAAyAiFAwAAAAAAZITCAQAAAD7C4eT2xPRVtQB98h+ZVf0vtfYBYItShQM3xvehkPNHlQQf9uwpcye8q9K2hziSqCfm2Z43LPSKxKq+6Hm7G+Fo4i3z6HjaqNAc8/e+0NM2lZmfc9I8fs2zBoVuMT/j73nW3id4/vfdQOgy8/e+bqB/zOSdax4n5SJSP3xIy5btJYnIWqX2CwZP7xxLweBv9BLIcmpZ+kVxZ7hqERw5y/wkfqHWfoB/Zx4PV2sfIM/w5PYRNHLkiyqN9/Z+XWbVPbvhy/VXHEIUMI8jVQKVhVilXa+JlJjCwfufMdMqz9v8dAj79/a2cGA6j6cn5sus6r952q4q3oY8fR9LmXdtbY7Xf980kWGD+3McN6/LM7Kcpr9G0h5jjjHPnUrtF45AsIG0zofrzVYtGtb7lmrrTIdy0+I9pHXCC6o58hQ3dJRRRarf5q2VtE4W1K/zvF0gGl5i+8o6xyWRTV5rGKoExSpIQZ7FzsxD8uAkDEC0emWShlfYq6s6B3+mEwmFw1ax4zCF4yeqhujpvUOz+fQIhAM0M9gY5IRONc9XKOfITxXli8xP6Gjv26XLzeMlnrcLeQWFAxSzr1HTOPsJ7y3aQQBk7pQ1HE3eb3anqgRgquOp84bZHCrtF4Jw10HmcXfFBH+Vtgl/V2yfTNGge7XhY5MJhQNA3kHhAMXuKo4uWiTNE9/SDgJgyod204PXKRyIRtDwUXa40mKl9vOfcAOpDp4V1asNaSdrB0hh+i9uSnxFWqv/rB0FAD6GwgGKG9OORKGrzN407SgAtKL7Uaose828MHfRCRCww3BQOGwGOzMdCo+rV4zQawqXdsX2N9wYvrdmhk04bK86oHAAyCMoHMAHeKqd0Uaaq3VmDgNIkwX1fRxNLjC75ylFwHClLQn/zyHmcbRigockVvW6YvumRxDIl2FKG5zMjbO/K23TerSDAMB6KBzAD+yMTi3c0DHOdty0w4DPidtO7GgVDttS2Q7HmudFSu3nMeck1eZdV/em6PVXXBo0M3yKvWIcGH0c4aZ+gLyBwgF8gg+gymFhs3OjdhLwN4nVLOFo0i5u9XmVAJzqIKNw2Ag3dASoslxzmNL71Kf8b9I49lDSveKyeU7qJmkUDgB5AoUD+IhzGTcuvFfaJr2mnQR8TqSdmGeotM1UY+eBlwX13Srt56Mdhh1mHndSa1/kPmmrWa3WvhXgfBumtEENT1080g8LxQIUAhQO4CfbUajkGvN8qnYQ8DnuaScq0Skc7HClyjI7XGmhUvv5J8DKw5R0Z1PixtkhCo0+QTPDVgyjspD997lZOwgAoHAA3+FTuCl+i7TWPKKdBPxLmic+x5Hkk8R0oE6CVEcZhYPB42cGad9xJyhOw/oytT35KLXWqAWg0C52mt4d9AJksH64EgoHgDyAwgH8J+DYG6W/LAvq12lHAR/j1JoOSoUDhit9ZN8Dx6+ftlmJyJ36q9vn7TClDb7O4eQYaalaph0EwO9QOIAf7UM7ll1gnn+mHQR8rLvvbioLXk3rZ/3y2jZUUW5nq7lfoe38wo7uTEJ9fcrDlOLlFHLqNDP0A5t3yWnm+TLtIAB+h8IB/MnhH3PT4rukdcIL2lHAn2RO3XKOJh61g2WUItjhSr4uHLiho4QqyyaS1jgloSdlVt2zOo2nhdgWDduoZuif09hxLhfXFe0gAH6GwgH8qpwCwevN80TtIOBncpda4cBUbT9tVp/NR1Nl2VHmBzFKL4DuTdHr5f0wpQ0+T+Gug8wzFvIEUITCAXyMJ3AkUSux6i7tJOBTrnMfORQze6UKrW9DAbLDle5TaDs/CDco3hTdS27PXWqtGxxObm9ef8dqZhgYtjdJo3AAUITCAfyN+QZu6HgIN4mCBmmpeocjyQdM51XnypeTml3Jl4UDV8dKacyYCWoBhH4trRNXqLVvOe4J5qFENcOASIP5dztfEpG12kkA/AqFA/jdnlRRdrF5/rF2EPApoXa1wsF0n307XGnM7vaT9u30AmCY0sDxKBqzZxVhKmEANSgcAJi/x9FFt9u59bWjgA+9uTpOleWrzN4IhdaHU5BtR6xDoW1ljuaib+/Ryu5OxfaJGxfuQqHSwzQzDE5quBIKBwAlKBwA7PhyKWkxz9/UDgL+Y4fJcTRpO0JTVAJwariSrwoHu4aFKdZq1QIIdagPjwyV2mloA6oZBqeap3WMktn1b2sHAfAjFA4AFtNRHEk0SKx6gXYU8KE+uYsCrFM4EFXxlPnDZd5pHyq1770dh9mrLNuqtS9uHgxTogIbpvSREhpWboueWdpBAPwIhQPABsy/5MntD8gdp6zSjgI+88+lD9N+494wezsptD6cRoysNs/3KLStY/1N4TqEXqBZdY9Ri95i0dy4eC8KhcapBRg6O1wJhQOAAhQOAB/blUaOnGmez9cOAv4ij8zo5WjSdtyjOgmcE8knhYO9ukIjRtXoJZA71RcxCwXt1Qa9iWiH7iCenvi8zKr+l3YQAL9B4QCwqYg5Id1mTkh/0w4CPuP2tZMTUCocfDRcadvtbdFQrta+9GGY0tAxBfk08zxDOwiA36BwANhUpVzriQAAIABJREFU0PyvhR3nG+qfCoK/zJrwBIXjy8zeGIXWy9Md6uK/x4e5QbH1P0tL3f9TbJ94euLLptO9r2aGLJlsjtOX4jgN4C0UDgCfwl+ncNcZZmeudhLwD9sB4kjiLtOxvVglAJMdrlTUhQNPbh9BI0cepxZA8mDthmChrd2wRXtSU+fXzfPj2kEA/ASFA8DmCP+cp3UswpR/4Km+vnYKBnUKB+IqjnRsI7H6D3Ta98CIkXXmcZhS6z3UK3crtZ3CjsPUFG8o6LsbNsaOvUkahQOAh1A4AGwO0440rPxnZu8c7SjgHzKr7lmOJv9qdv9bofky4jI7XEm1c5tTTJqLvj0gbTVvKrZP1Lj4YPMz2EM1Q3adxFPnnStzp6zRDgLgFygcALbsLI52zpXmuie0g4CfSLvp4WoUDvZKmx2uVJSFA09dPJKGh45WC5APw5QCTrEMU9pgJJXvaItdXy1gCKAJhQPAljnmTDuLGzrGyYL6Pu0w4BPSdzdx8CpKvf48xnQcn9W5rcype9/ztnOtPDSR7CrxOt6h55/vUmo7hcfPDNJ+407UzJATzHa4EgoHAI+gcADYKj6AdixvMjvN2knAHyRW9zJHE4+b196hCs2X0bCg/QT3LoW2c4vlJMWlC+6VRGStVuMp+4w90jxWqmbIjeP4zI4KuaV+pXYQAD9A4QCQiUOXcyR5r8SqXteOAn6RGq6kUThsmF2pqAoHji7agajkKLUA4ubBMKWimU3pk0JUVman2I1pBwHwAxQOAJltZzpT15jn07SDgF/0dpiO7o1mp0Sh8WOLb7hScBLZDqaOZdRa978Uc5Wat/d3zBtGwysmqQXItfXDlVA4AHgAhQNA/5zCkeQtEqv6rXYQKH7SPPEt83r7tSlYaxWaL6NSx7bbrtB2boijNwWpyB3qi5SV7VBtHkeoZsitr3BjfB9pq/mndhCAYofCAaB/mFhi3NBxgCyoX6cdBnyAU8OVNAoHOz++Ha5UFIUDNy2qpEDJ4UrNm4LBna/U9secoh2m9LEg2yvCP9aOAVDsUDgA9BvvSxXl3zU7V2knAR9Y9U4XjRhlF2PbxvO2mY61qyzLHaes8rztbAuUnEBa5zqhP0qs9t8qbaelV8uu1szgCebT2Jl5ibgz9MaEAfgACgeAgWD6MTfG26Wt5iXtKFDcZN5pH3I0udjsnqrQ/DAauZ292nGnQtvZprjoWx6s3TBypL23QWu1bC/tTo1j7YQCj2oHAShmKBwABmY4BZ0bzHPx3mgIeSQ1XEmjcLDscKWCLhy4ceEuFCrVmZ2KaC2t7b5Hqe2NaQ1TWm62XT1tMZC6SfpRT9sE8BkUDgADxTSRw8lqaalKaEeBItez/DcUHP2mec3t6H3jfEzBD1cKlNaTxkJ6llBCZte/rdJ2Wvr+jiMVmv6QyD3f/OgXeNzuCdzQEZEF9d0etwvgGygcAAbDoRvNCeoRnKAgl6RtWg9HEvfYLqBC88NoxMg686x/c+9gOYrDlPJi7YaQvWqkcZ7vohVrFlFl+Ttmf3sP292OKssmmOe7PWwTwFdQOAAMzhiqKP+heb5EOwgUOddtp0BAo3CwHW/b8SzIwoHPXrgblZYerNT8W/TmmqRS2xtTGqYk99jZ5ziaWGT+Jc7wtu3UcCUUDgA5gsIBYLCYvs/RRfOleeJz2lGgiLVN+AM1xV8wr7c9FFo/hhs7tpO2+vcU2h6aklJb9CgNU5IF2tM2c3Th7kQqhdMq+vDNB1J7fbSAAuRx4UBH89ldO8nNtW943C6AL6BwABi8UpKSZvN8jHYQKF528TCOJO42XcGLFJovpdAwO1xJf9jNQDE1qLWdD8OUqPRkIoVl74Q6Ze6UNal9d/kj5Hh+j06QSgP2Ssv1HrYJ4BsoHACGgulojsZPkuaafJg9BYpVb287hUIahYNdddl+cp8HHeH+46bFe1Ag9BWl5v9FsyY8QS3qywnoDFNi96MbolP36EST95vdsz1OYYcroXAAyAEUDgBD5vySz+p8QObUva+dBIqTtE34u+mA/d3sftHzxm1xXGjDlQJBW+x4/2m7JXKHvUqk0nYaT+/cl4LBLys0/S6tWPPgpr8k9uZ+rwuH/7E/A5lV96zH7QIUPRQOAEM3msoCl5rnC7SDQBETajdd4Z8ptFxKwdRMNbcrtD04wg1aZQP1iP7N5MGAztUGkUWfurdjRfejVFlu7zfYydMsweC3zaPOVTqAIobCASAr+Dsc7ponLbVPaSeBIuX23E2B0JWk8Uk6p2ZXKojCgSNdnyMOHKjU/ONyU83zSm2nsOMwhbuUZlPiT63bYAqJPo4k7iP2fErhU9mZ+SNxZ6iPGQMoJigcALIjSE6gxZy0D9UepgDFSVonvMDRxB9M5+zr3rfOR/PUxSNl7oR3vW97gDiguHaD6N8L0tg1zvwQ9lJo+S3qffXhzf6X1H0Pnk8pvBuFxx5hnjefCQAGBYUDQPYcQtO7TjfPt2oHgSIlbIcrKRQOVELDQ3a40jyFtgdKq3BYQ6t771Vq+2MBVhqmRPfbm6E3+99a/vI4hcctN3u7ehsqtaYDCgeALELhAJBNDv+cp3Usltn1b2tHgSLUvfpeKi+/gTSO3ZIarpTXhQOHO/+LHJWbgq0u7Ssy3NARoMpyncJJaIszy9nhQhxNdNghnV5GMo7nxniTtNWs9rhdgKKFwgEguypoWJkdh96oHQSKj9xSv5KjSTtrTZXnjTN9k8PJ7aWl6h3P2+4vJ6i4dkMeDFPaYdhh5Pmn+ikr6M3Vv93q7xBeYF5DXhcO21KIJ5nnOz1uF6BooXCAYvOB2UJkZ4JRw9M42nmrNNc9oZcBipZLd5GjUDjY4UpMdrjSbQpt95M0KM3CupJ6l/9Ko+FNaA1TIrrP3gS91d/RWvNHCsdfMnuf9SbSBqnhSigcALIEhQMUGztE6DazXaKYwSEJtnBDx1cznkwBBopXLyIqt0Mvyr1vW+wwmNs8b7cfuCmxv+k476vU/N1bHN/vEXO8KaHK8hNUGu+TjAtgrl8BPXmvqeu8nrb6KG5cuIu0TXrN43YBihIKByg+H678GQ3f8VSlmUXWYzqQKsqmm72YWgYoShKr/4CjyU6ze7L3rfOReTtcyWHF2ZRc/WFKO5Yfax63975heY3alj5GrdWZf6trCowAe104BChUcop5vtbjdgGKEgoHKDoyd8oabkqEzelCd+gA8+V8dte9cnPtG6o5oPiItJvXl0LhQCWm8YmUjzOHMWnd3/BPidUsUWr7Yw5prd3Q0e+1Etpql1A4bte52DO3mT4pNVwJhQNAFqBwgKIkrdW/5mjSTo14omKMkVQSuMY8T1bMAMVoZfevqbLsbdMhGuV52+s/2c+rwoEjyf82hcPeSs2rX23gSMc2xOW1Ko339X1q0bctSQ1XiibtsKYf5DDR5nyZw11fwgKdAEOHwgGKV3fveVQWPMbsjVDLwHQqNyVuMYXMo2oZoOjIgvp1HE3YwvgcheaP5Gkdo/JrymG1m6JdorX6N97KsDrz1x+u0PLL1PaXP1LrQGoW1xQOjteFg10Y0H6Ac6Hn7QIUGRQOULRkTt1yjiZnmN3rFGMwBaiFG2f/t/bNk1BkXLmLHNYoHEI0rMwOV5qr0PansOMwheNa9zc8Js2TXlRq+2OO1mxKcm+/hylt+BPNNX8xx+V/md3P5yjU5jGdwg0dF2HCCoChQeEAxe2ZJTHab9wUs/ffeiF4Xwruer7Z+YVeBig6s578PYXHvWz2PuN946nhSnlROFBT51jzOEancf21G+zVHxpWfrRO630ZZ1PaLJF7iPniLIfJZFeqGHakeX7Q43YBigoKByhq8siMXg53TScn8L9kbx/UwnwJN8bvlraal9QyQFFJr8Z7t3lxaQy/GM/RRTtI88S3FNr+BEfrakM3vfteh1LbHyspr6fUTeseE3qBWif+mZoHdMFhvd7eBRQKeV04GI4droTCAWAIUDhA0ZOW2j9xNDnH7J6tGGM4hZzrzfPxihmg2Ai3E6uM2w6RlNjhSrcotP2R9DAlrQkQFssdp6xSavtjarMp0T32ZufB/EFpm/B3c0z+h9n9QpYzbR3TJHsjuZ3S2NN2AYoICgfwB5cuMidY29GpVEwxicPx46Sl5gHFDFBEJFb1V44mnk0Nh/Oe/aRftXCgcNdB5nF3ncbzYJhSU2I0BfhQlcaFBjdM6eM/v8B05C/NTph+G05UZj+8ud3jdgGKBgoH8AW7YBVHk98n7VVvHW7mqfP2t2tNqOaAYnKX2S73vFWmI/SHK6kt+vYGPbP0QaJ+LHqWS4HU2hUaQzD/bY6pTw7xe9jC49IsZBmg1JoOKBwABgmFA/hHS83tFO6aak4cOp/QpfBeNLzih2Znhl4GKCout5uu42Xk/XykIXMKmWSe53jcbgo7Mx0Kj9MapnSXvX9Kqe2NqQ1TGuo3kFjVPzia/LvZ/WIW8vSfLXibEqOltfpVT9sFKBIoHMA3UosPTe+cTsHg/5HGzYQf+z5PT8yXWdX/UswARUJaqpZxJPmE6RAd5H3rqU/8VQoHmj7u6+ZxtErb5OoPU4ou2tscxsaqNO72f9G3rVo/XMnbwsFep3HoVMIsdwCDgsIBfEVm1T3LkcQvifkixRjDKMjN5vlYxQxQTITalQqHI7gxvqO01bzpedOO2qJvz9i1CDQa3lTJyUoN/zNrKzD3yT3mWPjTrHyvAUkNV0LhADAIKBzAf3rlcnOyOtn0OfZQTHEMh5MnSkvVvYoZoFj09N1DpYFfkvfH9KB5L9nhSrO9bJQbOgJUWX6Cl21uRP1qQ1rBDlPawF515WjSFmH/k63v2S9M+3NT1wHSWvt/nrYLUARQOIDvSFvNatNpP9ecPBarBnHol3xW569kTt37qjmg4MnNtW9wJPmIeU0rLASWGq7kaeFAFeX2PqWdPW1zPZfWrr1Tod1N2E4vBQL7qDRu12DILluIeFs4WE5qTQcUDgADhMIBfElaqjo5mjCFA09QjLEbDQvam6S/p5gBigVTu3n0vnBgOpzP7KiQW+pXetem2jCl38rNk17RaHgTAUfnaoPQ03a4Z1a/5zr3HipxfkZe/4Myf4vHz/x+ntzkDlAwUDiAj607l6j0KErN7a2E6VxuXDzPLoiklgGKw7vvLqSRI2eZvTKPWw5S+TA7N/5NXjRmOntB2m+c1kKK6sOU0rNJ6dzfwJLtqw0kN9U8z9HkErP7lWx/7wx2pi8c+E3zjHV1AAYAhQP4ljRPepEjicuI+eeKMYIUCrWw4xw22FVYASy7irHpgMXNrsIUpY5t05PCgfY9cLx5rPCkrU19SLL6PoV2N7V+NqnP6DTek7X7GzZlCxL2unCwVZgdroTCAWAAUDiAv/Uuv46Coyfbm+UUU3yDwvFvm+d5ihmgGLhuOzmOxtoGh3PTokppnbgi9005Wou+LZJY/QdKbX/M0bopWv5Pmic+l5Nv3SMdFOJryPPhSjSBJ7ePsEW3p+0CFDAUDuBr0jath6NdYaLAo6Q0aDrtFxxOdtoVrhUzQKF74YUHaMwY+xra3uOWA+SE7PChtlw2wg0dJVRZNknlrdon+sOUGmeHKDj6RJUjlXCOrjakJqx4iSPJP5q/18G5amMLymnEdnZ2rls9bhegYKFwAN+T5trHOJKYR8ynK8aoNCfNK83zdMUMUOAkEVlrOmD3m9fSmZ43zqkhUjktHEzRcJRpaFRO29gseY3e6n7I+3Y/IbDLUebnvKNCy2L+l7PCIYXdBUSO14WDaTK1pgMKB4B+QuEAYHV3f5/Ky+p0OiVpTGdzJD5XYjVL1DJA4bPDlQKO94UD8WE5H64k3KD0aXu7LKjvU2h5Uw5rrd2w1K5QntMWut0OKnOuIzsYy1uHcWP8s/aqh8ftAhQkFA4Ahp1KkiOJi0yn5GbFGOaE6cziho6v5kUnBQpT25OPUnjccrO3q8ctByhQYod9zMrFN+fqWCmNGaMzfXI+DFNq6CijyvKJKo3n+mqDbWJO3XKOJH9vjsGH5bqtT3AowKea55953C5AQULhALBB69JbTIfrDLP3NbUMTAdSRfk5No1aBiho4s5wOZq427yYvqvQvB2ulJPCgfYYc4x53C4n33vrnpJZ1X9TaHdTO5bXmMdtFVoW4rVerXBvCxSvC4cNw5VQOAD0AwoHgLRUh2t6YjoFeSlpvjeYruCzu+6zqwGrZYDC5nI7OaRROBxqXrs75eS16ygt+ib6azekqM2mRH+yU1d70tK6vvuoNHAj2atX3voCT+8cK7PqlnrcLkDBQeEAsBH7ySJHEs3EfL5ijJFU6lxtnr+tmAEKmLRUPcnRpJ06c2+Pmw5QScAOV8rqFbP0MJ3abH7PfuqjNb3tCu1ugqcuHknDQ1UqjUv2F33bYlOm4DSv20fN7pFetfmRYMBedUDhAJDB+sKh1xUKen0/EngEY+UHak3fDCoL2iEXu+mF4NM42jXHzviklwEKmlA7MV3qebvrZ1fK7lC7HYfZTrP3w3SEHrZj7z1v95PKgpPMY6lCy675X4fHLd5DjkLhQHwyN87+np2i2/u2AQrH+sJBHFc5B+SM4N92gExH4X2OJM4nZq/G9W4OEwVazYnsAJzIYFD6pJ2CfKlCy9/gSHJniVW9nrXv6LDOom++H6Ykj0tr9aueNtnn3k+OEzN7IU/btVNih3ax99HEPW4XoKCsLxyY8al00cK/7WBIrLqDo4kHzM/vOMUY+1Fo1/PM89WKGaBAyazqf3E0aaf2Hedx0wFiscOVWrLxzXjK/OE0YlR1Nr7XAH1AH7y9UKHdTdgizJyjxys1n/PZlD5J2mreNK/bR8zuMV63bX7adrgSCgeArVhfODiKnUtnHcZI5RauOAxWT2+UQqG/m70yvRB8CUc675ZY3ct6GaCA2fH5XhcOdt0DO1wpK4UDbbu9nU1oeFa+10AI3S/zTvvQ83Y/ncOuFO31zcJWH611vR2mtIErC0y/RKNwqLP3k8jcCe963zZAYUgPVepxvb8qmNYT1FjOR4GjVSDhisMgSduE/3A0caU5mVyuGGMb4oBdFKleMQMUqp61CyhUeg15PUsN0ze4ceEu0jbptSx8MwxTUiG/05vZjRfR+lXISzxueBgND9hj7RyP2wUoGPpXHHrW+KNwYHFUphJE4TA0y56/mvYcc5r5p/svvRB8Aofjx0lLzQN6GaAQ2Y670iw1DgVTi8HFhvJNeHL7CBo5UmM2oVdo1pJHqEVnIqMN+Jz4nlTiHKTTung+TOmjlluq3uFo4kHzE6jxvvXUcCUUDgBbsL5wWGM6l1qDMUp9csVB7LhflYbXabRaLCQRWWtOYGFzMnlINYjDzTx13v4yd8oa1RxQgKTdvH69n6Vm/exKQyocaOR2dgrWYVnJMxBC7XZdF8/b/aQgn0w6nzj1Ug/dp9DuRmzholI4fMMWbHJTzfPetw2Q/9I3R69bo7akg1Pij3scmLX+nmuV2i0a0lz9sCkebOfrFL0UvBeV73iR2blULwMUpA9776fhITs9qsfTefIhfFbnrkOazlS4QaXb7EqeDFNinWFKQo/Ym5RV2t7g3VWLaeRI+0GJ14UjUwmfap5/6nG7AAVhfbWwbs1aGlauk2DdWp8sQichnQ+OGJ9QZ4PwBeafz87ssp1aBuYfcKRrvsRq/62WAQqOvdGTI8mEef0e73HTDpUG7XCl5sH84fSiZ0dnOVM/yP9Ja/XT3re7KW5K7E8B/qJO494t+rYlcscpq8zr9lfmdTvR+9ZTw5VQOABsRnqo0rA1NEIpQanKbBHeY/b+crslhMIhC+yc9BxNXGz+IYc29GJohhEHbCdMc4pYKEhyl3ntel042NLBDlcaVOFA5SHbYfR+0TPh/LjaEFC62kC0jtZ0L1Jq+5PsfRYKhQPtzdHOr0pz3RMKbQPktVThIAvq+ziatItMeT+1klvqj8JBZ9VP+8kRCodsWdHdRpVlp5sf6ljFFMdyOH6CtNQojz+GgrL6zTgNr1hl9rz+iOjrgx6uxHKSwlXaXlrX1+51o5/EjsMUjp+s1PxDMrv+baW2P2F1l6kgV5sdhSERAXvVAYUDwCdsPEzIdjC9Lxycdf4YqiT202KNhjFUKVtSBfb0zukUDP6JvJ7ecmOOcx1HOn4tsfoP1DJAQbE31XMkcT8xn+5x0w6VOXZ6yxsH8oc4umgHopKjcpRpK+Q3elOQbmT64q+axzEqbYv+MKUN7DGOo8kkqUxHzSdzQ8d3zXEfE4wAbGTjTnu32bZViKC0gITnlG4iIf0FjIqIzKpbytFEmzmphBVjfMa8nGaY5wsVM0ChYbfd1Lune9+wY4crDahwMOeFSaTxQVa+DFNyHK1hSmupt3uxUtubZwsZZo11bHagylI7LDS/fh4AyjYuHOynl5WeJxDHJ4WDbKNyc7TQ+943WuR6ui+mULm96XNntQxM53JTYl4+3MQJBWLF2keosvx18v51e7B5rY42r9VX+/9HVBZ9W0W9rnonkRs6AubfSWfRO5JfSVv9ezptb0GvJCnEtn+yjfeNO3a4kvprAiCfbFw4KHUwXX8UDqxxNScFhUOW2RMrh+MXkOPcqRgjRAFqYcc5XFxXFHNAgVh/L1vCzo3/HY+bdsz/7CfGN/TnN/OZHRVUXn5EjjNthtwnbTWrvW/3E3ZM/d11PpRw9RZ92xL7b8KRZJc5hypcheEaDie3twvSed82QH7aqHCQD1Q+EXfF6yXllbDCpyW2WUHhkAPSUtPO0eRU8n5F3o3wodTUZT8Ru10vAxQWe+Nv0OvCYcNicP0qHKiszF7N8/7et7wZpqTRQU7pprVul1LbWyfuPcQqw7dKyXHt1Z+bFNoGyEsbHZxZp4PpBHxSONBIlVYxVCl33N4wOcG/kdaMWRbz1RxOduETMeiXlol/pnDcrgPyOW8b5oP57IW7yc2TXsn8W7nBg0Cf9BK1LvkdxaoUmv4YV8dKacwY76fNTZGkzKnLz/NF91u/UpoVjNJrOqBwAEj75D0OGvQ6Xd7aXqndVUrtFj1pqft/HE1cbU4sP1aMUUksdqEizZu1oUDYYW0cSd5FTD/xuGmm0lI7XOn6rf6mSHJn8zu/4VGmjc0Xd4ar0O6m9tjD3oyr8yET5d8wpQ1Ss4JFE4vTnXiPmaK3cfFe0jbhP963DZB/Nh6q9K7Szbt+ueIwSqVVdvNkPu4itaL7Sqos+5b5Qe+lloH5HJ7eeSsF/TGzMQzZXWbzunCwx3o7XGmrhUPq97DCVMdC8z1vc3MctUXfPqQeiiu13U+2sNEoHMwrMhg6zTzPVGgbIO9s3NPQGerguDorKntPp3AgfkunXX+QBfXdHI5HzQk/qRgjYIqGVpNmnUrxDwVFYlX/4GjyL2b3fzxtmOlrHOn8jMTqXt7i73FIYzahJfZnotDuJviszm2pLFij0rhQPC9uDN+aFWsepMpy20/x/uo9y2R2nMswEQXAxoWDawoHRyVD0Q9V4inzh9OIUTo3R/f14YpDjklLzQOmI9ZBKosUfWSceaX1KrYPhUTIDlfytnBIVbVB+x65brP/8eyFu1Fp6cEeZ7Lnvvy4Kbo0OIG01vvh/Fn0bUvsQmwcTSwyYc/wvnXeixoX29fm/3rfNkB++bhwcPhdpQxFXzjQsJHer4+xwfsfonDwwtq155tOzzGksojiRzBWCfpn3dq7zev150Sef1xkryhstnCgklI7lMnrPD30/9s7F/AoyyuPn/PNTBKCZQMirlIvtZddxVW7mrq1Wq1WrckQoGbBRaxXaMjMqOv6aLfUIrW2zz5WXTuTEKWyi5dAIAiBzODtYRUVdRG11rsueCkXAQVREpK5nD3vl0FISCCQme98M3N+PMP3TYCcP5OZ733/33vec3a2zXM4Zu/IVVPaDju2LBOKfWAkoQk8IGAcGI/d00GNg1Lw7LnHYavMHgfM/1QlLx0uFLkTHp70BTw4USh84WCqxWAwNp0/QndJa1GU/WG/X0OxFXx6jqOBEU7HmtajqcH/US9/6nyaEsGjdH/1Zsfj9oBfk+Hgs84XCU6wxGw+Fol9oKTWLwdr5BZ+Hw13PjiOx8rIdRQNdjgfW1Hcwx6pSrhFJFUJC2DFAa2vC0XeqDmZDvLmqjCMKr+cz06WlqIo+4WoERDPcTgqgg9NulI3g421LceCx3e6w1rMpNkdaUpe+zURaobq3mpKPaGGyXEMxhbx6WSB8EPh2GPNHpSFArEVxTXsNg4IW2QkYAEYB5QyDp8IxS1IaPn0BIaiU/kH/iw4n3KhKAdGR/tCKCmN8JnDle3QrCx0X5nzeE2aktNL3tugfbM7Gp6JdEW22QZr1z4uFPvgsPdjoIRxMCndJl1JjYNS0Ow2Dp0dW6BYYA5PhdA5mo4SKnW70fmghQ2FK5/HYOx+/nHLDGyK0k9oVvVnGIo9yqdVDof+HoYWHUPhcR/uFoMTHL9EEixwQ4qOqTQF6D1TJDjR4pxLvdnU/hSMKN0EpoeN4+BFGFp8KIXHarVCpWDZbRwS29k4HOa8AiyAPg6ExwlVyVTjIEFH2y+gpHQsnwl8oBTlAOhKV3LaOPDVsMik5txpP6lp+Sb4fKc6rME9aUrgNZ2yZVYoKXfSlHZBTdVJDEab+X1bKxCe5yu+S/hYJxBbUVzBV8ahqzNjzLSbd7oqTP5XgkGQaQ6G8FeRuAWOfSc3GLuJX///ktaiKPskQUvBhwLXfTtdyTYO4PFK9G5YCzP9z0KdfLNowTSlTyG54Umh2APDGB4Z4wDpJnRqHJSCpeek3eTEOz2AOF1L3FHQmmFBoPxbIsFT1HejJSW71PvnQGDplfwO+KG0FEXpC9P0K10b3+mOvOVmQzTVj/kALJzgcGy7U7QbCkdgYMnfgeUVGgNpkdlsLBN7gMxc/QyPq+v57EiB6KdjaPF3KDz2XYEwCIMbAAASnklEQVTYiiJOT+NgUlucnuSeiTWtpa7vWnmwTDnlG/z7IJHYFvRW8lBxADMpwdpoADxgOvQKVUtRlH5A2AgIThsHBMtXzRPnpTxxdr4KGXY+5HjM3kCP1GqDqaTo+qZvfUGp6Sk2vM38Al4ro8BnPi+3yMRWFFl6GAf6RGATbzF4sYKPzU4HdgSP5xSx2Ak1DpJQfeXrGIzdzR+pm6S1KEqfvLnqSRhVbnoZOLsnB2E8oNf5TskEL1DEJXeLEaWMwyZ4a9VTABVC4TNAMjWfx1ch44CXomX92g2rVoriNN2NA8EnIpt40V4mz0/jgPgDochJ+GitGgdpvvjsNzBkmEnFOEZaiqL0RrqM8HyTOONw6NNAJtXEFZuiMRA7FSz4jkhwgkfMz10kdqZoGLMSAq0mHfcogejfgEDLWXxcIRBbUUTpseKA62VkwEU4ZdHXTTdTofjZA+FCkbgEH+dcmb08hOZM2oGhpdcBeBZLa1GUPulKV3LaOJjbVCMdjtkJ2OmOFB25TdFm/5s7XoMBYKeDhqIL+IW8QUaBZW54qnFQCo7uxgFpg0i/AZMDXlR8PR9vlAieLbA2eiJ48ASh8O8LxVV6QOHRLRiKLQHn6+UrSv+o9z8Pgda1YO6k5jMEMYrI1+BPF824RCY6j/MNL62A+kqZ8JkkCU3gASHjgNV41ZyQG3qBKIqTdDcOKb6gWDINB9iv/ByDsT9QpCJ/eg94cIpYbIT3xGIre5OMXwce34/5zPmcbkXZD113b2Nz+fSX0lqyjCvSlGDqqSbNxenVljTYbDYXy8TOMA2jVwka3jIYfKi5GZRzvTAUZSD0MA64XqgNjeEQnuzezserxRRkEJzcPAxKSq8UE0D0plhsZS9M2Uk2xrfxe/z30loUpVeSNBc8mM/GYSusXROVFmFjiW2KNi4xbya6acNr/j83yyiw92fmzeupKP2hx+ZoWieUqrSLKzDQ+gDV+Z+WFJERSgZNA2OGxMA35GIrvbK57S4YMYgHGrH0NUXpE7sKWCj2Gp+eJK0lKxA0uWHfF9bM8oFvZLVQ+L9C/eqVEPELhc8GxghZUsbhQqxdPILqx26Sia8oztPdONxX9SkEWs2FtVhGDlhgWQ/gVS0n0+wx24Q0DBicuuQE8Hqd3mjYnfa210XjK3tBTdWdGFo6FcDzFAg7dEXpg0bIV+PgljQlz8gL+PdDRWITLcibNKU0FPa/zIbXpOZ+WyC8Dzxes1fljwKxFUWEbsYhvexnKitJbpA7Gkp9TXjujMpcLBeXvpv03yBnvhj6jO6v3iwXX+kLCo9ewZ+xB/j0cmktirI3HfP40mXS6fLN2L5vbwCPuGDObAlWU8JkzldT6hWi+YA4TSa4na6kxkEpGHp2jjbLua/wkCFbWQPhAjjhtFk4ofkaaqpOimo5UHwj7+Tfy2VFaJqSq0l23gSeIrOpbqi0FEXZEwqP+5CN7bN8epa0loxC8JAbmnVhTWsp+KwxIsEJPoD6sf8LYReYp0xj9m2gR8o4nIbB2PEUqXhLJr6iOMvexgHJ1EX+qYCWHjrwCjistJjNwxUmxUNaTn/AYLSGdYekdfBVdJW0AqVvTD4shlr/HcBqkNaiKHtB1MjXsXwyDgSJ+EPSImy8OBqk9r6hSVOSN0/ZgOpGv8aG10zcjxcRgGRWHfK5sICifMXexiFOS8CHZn9BmfNyemAa5Iwo/RbWtow3VWmk5ewLDMb+hQfbOmkdNil6RlqCsh/qVs+C2vIr+D3+T9JSFKUbCWrmMcCkXvikpWQGWkkNY/5PWoWNaNM3zM80pV10pStNlwmOl6I141f5tn9EUXpjL+NADf42DEUf5g+C7Obe3ZSDx/cyT8yvoUjFI9JiegMD0SvBwlkAgsVsd9MJ27cvlxah7BszwPB7eiqfmtWhvQ28ogjBY8AWfm8+zpPcPOgQZiBXbIrGQGwojxMXCYV/n+oqVgvFdoZkcj54vULGAY6G2vKz+fg/QvEVxTF6n7AQ1vGgUQvu2SA3lJUsZEMzHyh5I0WqPpYWZMCa1uHgte7mwWCStJY9eJIenLhdWoSyf9gIv4qhWIRPr5fWoijdoFQjoJUPxqEDUpY76uwjmBTgIqHo7ngNsgjNrHqTr6d/4dN/EBHQla6kxkHJe3o1DmaTD0/So/xJcFmxZxwP6K3CYOxeSMTDUsvPOGXp4VDsuRZ8VpCfDpHQ0CcE7sjlVfrHtm3ToaxsPJ8dKS1FUb7iy20tMGTYDj4bLC1lYFAr1VVulVZhI5mmlKC8Nw42BE38OssYB8CLsaY1aLI2ZOIrijPsK0Xid/xwmXGwKeELw3Xg84XYQCyz74xt396a7bvseFnjEBgy5HxAaxKbBnMnzo35v59DItUiLULpP+Z9i4HY9WDl/x1BJXegOZN2YCjK1xKcKK1lYKTckaZUs+gI8BWfIxKc4B2aWflnkdhOk2SD5MXfCkUfAl67YtZcofjZB2ESz7u+Ly0jN0hc5ZbsmEzTp3GgcOXzPHAs43eKVE7m/rDsHFyznF5WtpO1mg3BK3igWAE7Uq8NpIEcWjMsCJx0FFDxqRzjVL7w/oBjnAHuNAu7IZildztyD6qrWICh2GN8eqG0FkXZDc3NaeNAsAU2dyyTlmHjLTKrih6R2Aj5vSl6D9ggvcdzgVf4P/1dEQFd6Ur5axxMjy/pcv25QgpKpSVki31vykympoHHY7pcylzw+k8Jf2LP5+P5ttTBHkg3snuHB491fNzIj0/5Db8TiHbysZO/XgSIJXzkf2vvoRjOl50RfH4cBMqPg66VjS7cstNj38QhkQpLi1AOkng8AD6f6fZdIi1FUWziGx4D38hPQarL8UBBanJNKW9EuTQlSBXYaqZdPUrGOPA8BIOxv6VIxUaZ+IqSffZpHKh+9Cv8IZjNE+fJTgnKIEfaj56Tfkx/oVdTkBsOoVcIHqAG/0fSMpSDw+zXYbNrOvbOkNaiKAZqmBzn6/8CvizWSGs5OJIuSVNq+Sb4fN8TCU7wOkX8hdUQtJONUpEl1f3czKmMSbxbILaiOML+y0CmOn8FniJTDSI37zoVBjsBEjrhzHXWrPkPOO44U6Hr29JSFMWGoDFHjcO7FK56UVqEjc9rJpJCd6UKZFP0HtC9/rUYipky1zJmrStdSY2Dkrfs1zjYXW6D0RsAcY4TgpSDgcL5ugmnkKBosANDSwMAnseltSiKzcxVz0Gg3KxkHi0t5cBwR++GLvASudDxgtnf0B1jmFDGOAB+F2ujJ1J95esy8RUlu/Sr8RRFKh/AYGx8/jQEyivWQXvyNmkRSmag8OgnMBSbx6dykw1FSZNuVDiPr/03SWs5AAiSCVeUpcap0ZPBi6OEwr9K4bHvCsWWJU4LwId3gNRKj4Vm1eFmkdiKkmX637G2ve1KKC19FbTevMtI3UB/qvpCWoWSQeIdN4Cv2FQz+xtpKYoCSWrkyW8OGQd6hurHfCCtwsYruCmaCqeaUk/Mfj82vM+zbThDRADCpTih+ZfUVJ0Uia8oWaTfxoHur96MgdaJYFlPgNvLkhYM1EJhf8HlsOY71DBuAwZit4AFf5TWoiimBwCGYmaDrdSd8wPEHWlKaFkIta0ThO55E/8q8LHBTleSMQ4AI2F46Y/4+KRQfEXJGv1fcQBTb97/NIZaQwBWQ7YEKf2FPoN451RpFUqW2NJWDyNKr+Czf5SWoihMIz9ulxbRD3ZCfOcCaRE2NS1nsGk4ViY4raa6yjUysV3CzuQCGOS9C0zPJwkQTLqSGgcl7zgg42CgsP9eDEZPAsTabAhS+kmKppg709IylOxglrgx2FoDaL0AUgOfouyiMzUXiizTkdflNatpCTVUfy6twsZjCaYpYcGmKe2C/lS1HkPRZ/kt+0MRAQg/xcsfqjVd2EXiK0qWOGDjYLO5/V/hsNJTxPIHCx2CBqrzL5SWoWQXivhXsUlvUJOuSGOXuJTMGe83LklTOneGF0aV/7NQeALscMeqizTGQCHIGAeAQ+CQYeP46IqN+oqSKQ7KOJhunDyIXMynz4HptKw4h9nwtrktKC1DcYi2xDQY7DOftcOlpSiFDs0VzBnvD5vsbtdu4O9PO49/HyEU/QUKj/tQKLa76EwuhGKP2SvmEYnfla6kxkHJKw5uxQHM3dCKjTg1+hPw4rMgd4EsMGghJNZfRk2TtVJDgUCzx2zDQOxGsMAVd1KVAiYVnw+eItPY6qDHjexC80y3a2kVNh7BakpQ6Juid0P3jf4EQ7Gn+PQ8EQEI5+E1S440aVMi8RUlCwxoAKCZle+xebiAzYNpWKXmIbvcB5vaa9U0FCAz/Q9DYOmVJgFCWopSuNjNQEMxs9nzJ9JaeiWRdIW5xqvmlMDgw8YKhU9BkjRNaU9SbKQsIeNgVjpKvBP5+Aeh+IqScQZ858gu1VfTejb4LDOgjMyAJqU7xI9boc5/G6VSJC1GcR7zc+fPWAB8+Gd+WiStRylkUo0AlhuNw1s0s+olaRE2gw41jVKlerA8R/WV64Riu5Nk6hGwrAhIlZHvSldS46DkDRlZcqYG/9sYXPJ9QO8SfnpKJr6nYvMlv7o/o3DlIginpLUognR9xqJ3AOI0aS1KAdOeWgyDrDY+K5WW0o2UOzZF21iSTd9I05R6wNfOLRiKLefTC4UknGQ6iJubrELxFSWjZCxXlSJVH2Ow+SweT+aYMmSZ+r4FC8FqoMSlVFf1jrQUxSVsbr8dRpSaSYkWJFBEMF3qMRRtBcDx0lr2wKTnPCwtwoCXNQ6BsrIKofBJVtAsFNvl2M3gpIyD2fNiVh3UOCh5QUY3uVGk+ks+XIzBaA0gmsYrgzL5/QsEs7nvDkisu9U1G/0UV0BN1e08aQvxABiV1qIUMiZdyeMm4/A0Nfg/khZhU1Zmym9KjXsrTNESodjuJoWLwIKZIJXqiTQRJzTfbPrziMRXlAySleoYFKlswKlLVoDHO8v9db9dBMFKSMRrqGHMX6SlKO6EwpUxDMYe0VU9RYxNHctgROlWPhsqLcXGTWlKAILVlFIF3/StL6iuYitfN5/g62aljAI8Ag4d9GM+cUe5YEUZAFkrq0czq95Ea8ZZUHvaFED8HbhlkHEn7/MrdgvUj27SDdDK/klczx/dC8A0GFIUh0n38WnmSdhkaS1MG2z/3BXNMLF28QjwFElV70lA285HhGLnBmiMlSVkHGBXupIaByXnyWo9bkpNNzt6GzAQawILbuTza0EnO3vyNkDqTohvmGOnJekGaKUf2PuJQtFbeSTUSh2KDClq5ImQvHEgaKEHJ26XlmHj8ZlO0TI9LgiW0/3Vm0Vi5wrbtrdAWdlOPisRUjAOr1nyNbNPSCi+omQERy5yZpmQD9Pw6ub/hNLSqXz+c34c6URsF5LgV+RRvtDfB/UvRdPmSlEOjDdeugdGlf+Mz06SlqIUIA0vrYBAuSn7KVuCm1KaptSFVlPaD8ZgYjD2KCBI9dgohUFek2I6Ryi+omQER++OpO+I/AZrZv0efEeMA7Au5+cXOK1DAOJfL5rOppCKzzWNlOyvRuRWTZXchpZPT/AgOJUHQdO5HaX1KIWFueHB7795/M77N0EZG+Gt1U8A+AUldIGhRccAFEvt5+uEjrZFQrFzDWOwpIyDwaQrqXFQchqRCXu6WpD5AM9P54VezF+t4Mvvj/hrgyU0ZQGzsrCSDUMU4rSA7vWvlRak5BcUqVjJk7fZPHm7WlqLUoCg3QxOzjgQzTUGWiz+nlDRWP4c7pCJDU/SrOrPRGLnHG1LgUq38M9KKl2pHGsWHUEN4zYIxVeUASN+pz99992USZuJV80pgZLhZ4MHzuTnZ/DIdDrkjpEwqwpv8GEFn68AwseprnKrtChXkIIqsFIO3RXHdmfiuIS2+I0w2LNYJHYKPxCJuwuCX/DkdZjjcZHedjymC6Gw/2UMtFaAxVdsESx3dIoGu5LgPXy4R1qHsm/SJeMPk9YxYDDxa37/h6VlKPsAOzPcwX1rG0DJ6Mx+z36S6D7WixuHPaHZl5uNS4+lH4DnzvDCCeUn8gThRB6cjucvnch/axT/yTEgq92smLwPpqEL2U1dXuU3ySqKjP1UUJNroboK7TuQJWj2mG18aJXWIYFZcZHWUOhQnX+ZtAZFKTQoXPWitAbFWdKZOq4Y611lHHqSXoZ+Nf34CttQHF9+NJgOugjHANIRQHg4H0d0HWEoT+iH8PMh/Le/xn/P19+Q/DDLzdv4bBv/+038/dbz8/WAKeMe17D1ehfim9dqczZFURRFURSlkHC1ceiLtKFYk37sF6yMFMOwYcUweEgRJFJF4LW84OEHxVPQiZ38vBN2bO+Ede+1uSZnVlEURVEURVFcxP8DmwJLC8YO+2QAAAAASUVORK5CYII=;" parent="vfCL8tkKtulY90qjnvT6-115" vertex="1">
          <mxGeometry y="20.3599999999999" width="61.62" height="49.64" as="geometry" />
        </mxCell>
        <mxCell id="inP38kxYKpgd8RfZzEMa-5" style="edgeStyle=orthogonalEdgeStyle;rounded=0;orthogonalLoop=1;jettySize=auto;html=1;" edge="1" parent="WIyWlLk6GJQsqaUBKTNV-1" source="inP38kxYKpgd8RfZzEMa-0" target="vfCL8tkKtulY90qjnvT6-49">
          <mxGeometry relative="1" as="geometry" />
        </mxCell>
        <mxCell id="inP38kxYKpgd8RfZzEMa-6" value="1..*" style="edgeLabel;html=1;align=center;verticalAlign=middle;resizable=0;points=[];" vertex="1" connectable="0" parent="inP38kxYKpgd8RfZzEMa-5">
          <mxGeometry x="0.8801" y="2" relative="1" as="geometry">
            <mxPoint x="1" y="-14" as="offset" />
          </mxGeometry>
        </mxCell>
        <mxCell id="inP38kxYKpgd8RfZzEMa-7" value="agrupa sequencialmente" style="edgeLabel;html=1;align=center;verticalAlign=middle;resizable=0;points=[];" vertex="1" connectable="0" parent="inP38kxYKpgd8RfZzEMa-5">
          <mxGeometry x="-0.0535" y="-1" relative="1" as="geometry">
            <mxPoint x="-12" y="-10" as="offset" />
          </mxGeometry>
        </mxCell>
        <mxCell id="inP38kxYKpgd8RfZzEMa-0" value="Viagem" style="swimlane;fontStyle=1;align=center;verticalAlign=top;childLayout=stackLayout;horizontal=1;startSize=26;horizontalStack=0;resizeParent=1;resizeParentMax=0;resizeLast=0;collapsible=1;marginBottom=0;whiteSpace=wrap;html=1;fillColor=#fff2cc;strokeColor=#d6b656;swimlaneLine=1;" vertex="1" parent="WIyWlLk6GJQsqaUBKTNV-1">
          <mxGeometry x="1445.5" y="160" width="330" height="162" as="geometry" />
        </mxCell>
        <mxCell id="inP38kxYKpgd8RfZzEMa-1" value="Data de Previsão&lt;br&gt;Período de Execução&lt;br&gt;Amostrador Responsável" style="text;strokeColor=none;fillColor=none;align=left;verticalAlign=top;spacingLeft=4;spacingRight=4;overflow=hidden;rotatable=0;points=[[0,0.5],[1,0.5]];portConstraint=eastwest;whiteSpace=wrap;html=1;" vertex="1" parent="inP38kxYKpgd8RfZzEMa-0">
          <mxGeometry y="26" width="330" height="74" as="geometry" />
        </mxCell>
        <mxCell id="inP38kxYKpgd8RfZzEMa-2" value="" style="line;strokeWidth=1;fillColor=none;align=left;verticalAlign=middle;spacingTop=-1;spacingLeft=3;spacingRight=3;rotatable=0;labelPosition=right;points=[];portConstraint=eastwest;strokeColor=inherit;" vertex="1" parent="inP38kxYKpgd8RfZzEMa-0">
          <mxGeometry y="100" width="330" height="8" as="geometry" />
        </mxCell>
        <mxCell id="inP38kxYKpgd8RfZzEMa-3" value="Rota para execução em campo que determina a sequência&amp;nbsp; logisticamente organizada de Coletas à realizar." style="text;strokeColor=none;fillColor=none;align=left;verticalAlign=top;spacingLeft=4;spacingRight=4;overflow=hidden;rotatable=0;points=[[0,0.5],[1,0.5]];portConstraint=eastwest;whiteSpace=wrap;html=1;" vertex="1" parent="inP38kxYKpgd8RfZzEMa-0">
          <mxGeometry y="108" width="330" height="54" as="geometry" />
        </mxCell>
        <mxCell id="inP38kxYKpgd8RfZzEMa-9" value="&lt;i&gt;Parâmetros Pontuais são analisados em campo por equipamentos de análise portáteis, como Colorímetro, PhMetro, etc.&lt;/i&gt;" style="shape=note;whiteSpace=wrap;html=1;backgroundOutline=1;darkOpacity=0.05;" vertex="1" parent="WIyWlLk6GJQsqaUBKTNV-1">
          <mxGeometry x="1470" y="1010" width="270" height="100" as="geometry" />
        </mxCell>
        <mxCell id="inP38kxYKpgd8RfZzEMa-12" style="edgeStyle=orthogonalEdgeStyle;rounded=0;orthogonalLoop=1;jettySize=auto;html=1;entryX=0.655;entryY=1.037;entryDx=0;entryDy=0;entryPerimeter=0;" edge="1" parent="WIyWlLk6GJQsqaUBKTNV-1" source="inP38kxYKpgd8RfZzEMa-9" target="vfCL8tkKtulY90qjnvT6-86">
          <mxGeometry relative="1" as="geometry">
            <Array as="points">
              <mxPoint x="1580" y="966" />
              <mxPoint x="1696" y="966" />
            </Array>
          </mxGeometry>
        </mxCell>
        <mxCell id="inP38kxYKpgd8RfZzEMa-14" value="&lt;i&gt;Por simplificação, também pode ser referenciado como &quot;Ensaio&quot; ou &quot;Procedimento Analítico&quot;&lt;/i&gt;" style="shape=note;whiteSpace=wrap;html=1;backgroundOutline=1;darkOpacity=0.05;" vertex="1" parent="WIyWlLk6GJQsqaUBKTNV-1">
          <mxGeometry x="1030" y="1110" width="270" height="100" as="geometry" />
        </mxCell>
      </root>
    </mxGraphModel>
  </diagram>
</mxfile>
